<svg width="28" height="28" viewBox="0 0 28 28" fill="none" xmlns="http://www.w3.org/2000/svg">
<path fill-rule="evenodd" clip-rule="evenodd" d="M16.9697 12.9264H20.8447C21.4322 12.9264 21.8938 12.4406 21.8938 11.8548C21.8938 11.2548 21.4322 10.7833 20.8447 10.7833H16.9697C16.3821 10.7833 15.9205 11.2548 15.9205 11.8548C15.9205 12.4406 16.3821 12.9264 16.9697 12.9264ZM25.4472 5.49849C26.3005 5.49849 26.8601 5.79852 27.4197 6.45573C27.9792 7.11294 28.0772 8.05589 27.9513 8.91168L26.6223 18.284C26.3705 20.0856 24.8597 21.4129 23.083 21.4129H7.82094C5.96039 21.4129 4.42159 19.9571 4.26771 18.0712L2.98072 2.49676L0.868362 2.1253C0.308798 2.02529 -0.0828964 1.46809 0.0150273 0.896607C0.112951 0.312263 0.658526 -0.0749178 1.23208 0.0122336L4.56848 0.525141C5.04411 0.612293 5.39384 1.0109 5.4358 1.49667L5.70159 4.69698C5.74356 5.1556 6.10728 5.49849 6.55493 5.49849H25.4472ZM7.5967 23.671C6.42162 23.671 5.47036 24.6425 5.47036 25.8426C5.47036 27.0285 6.42162 28 7.5967 28C8.7578 28 9.70905 27.0285 9.70905 25.8426C9.70905 24.6425 8.7578 23.671 7.5967 23.671ZM23.3344 23.671C22.1594 23.671 21.2081 24.6425 21.2081 25.8426C21.2081 27.0285 22.1594 28 23.3344 28C24.4955 28 25.4468 27.0285 25.4468 25.8426C25.4468 24.6425 24.4955 23.671 23.3344 23.671Z" fill="#454A6D"/>
</svg>
