<svg width="173" height="61" viewBox="0 0 173 61" fill="none" xmlns="http://www.w3.org/2000/svg">
<path d="M93.9494 48.009C93.4873 48.009 93.0705 47.9304 92.699 47.7734C92.3305 47.6163 92.0254 47.3928 91.7838 47.1028C91.5452 46.8099 91.3896 46.464 91.3171 46.0653L92.1508 45.9339C92.2565 46.3447 92.4755 46.6664 92.8077 46.899C93.143 47.1285 93.5371 47.2433 93.9902 47.2433C94.2832 47.2433 94.5475 47.198 94.7831 47.1074C95.0217 47.0137 95.2104 46.8808 95.3494 46.7087C95.4883 46.5365 95.5578 46.3326 95.5578 46.097C95.5578 45.9521 95.5321 45.8282 95.4808 45.7255C95.4324 45.6198 95.3645 45.5307 95.2769 45.4582C95.1923 45.3827 95.0957 45.3193 94.9869 45.2679C94.8782 45.2166 94.7649 45.1743 94.6471 45.1411L92.9844 44.6473C92.8032 44.5929 92.628 44.5249 92.4589 44.4434C92.2897 44.3588 92.1387 44.2546 92.0058 44.1308C91.8729 44.0039 91.7672 43.8529 91.6887 43.6777C91.6101 43.4995 91.5709 43.2896 91.5709 43.0479C91.5709 42.6613 91.6705 42.3321 91.8699 42.0603C92.0722 41.7854 92.3456 41.5755 92.6899 41.4305C93.0342 41.2855 93.4224 41.2146 93.8543 41.2176C94.2922 41.2206 94.6834 41.2991 95.0277 41.4532C95.3751 41.6042 95.662 41.8217 95.8885 42.1056C96.1181 42.3895 96.2721 42.7293 96.3507 43.125L95.4944 43.2745C95.4491 43.0087 95.3479 42.7806 95.1908 42.5904C95.0368 42.397 94.8435 42.249 94.6109 42.1464C94.3783 42.0406 94.1231 41.9863 93.8452 41.9833C93.5794 41.9802 93.3393 42.0225 93.1249 42.1101C92.9104 42.1977 92.7398 42.32 92.6129 42.4771C92.486 42.6311 92.4226 42.8093 92.4226 43.0117C92.4226 43.211 92.48 43.3726 92.5948 43.4965C92.7096 43.6173 92.85 43.7139 93.0161 43.7864C93.1853 43.8559 93.3499 43.9133 93.51 43.9586L94.7513 44.3165C94.8933 44.3558 95.0564 44.4101 95.2407 44.4796C95.4279 44.5491 95.6091 44.6473 95.7843 44.7741C95.9595 44.8979 96.1045 45.0641 96.2193 45.2725C96.334 45.4779 96.3914 45.7376 96.3914 46.0517C96.3914 46.3659 96.328 46.6453 96.2011 46.8899C96.0773 47.1346 95.9036 47.3399 95.6801 47.5061C95.4566 47.6692 95.1969 47.793 94.9009 47.8776C94.6049 47.9652 94.2877 48.009 93.9494 48.009ZM99.1993 47.9999C98.8852 47.9999 98.6149 47.9501 98.3884 47.8504C98.1649 47.7507 97.9791 47.6178 97.8311 47.4517C97.6831 47.2856 97.5668 47.1013 97.4822 46.899C97.3977 46.6966 97.3373 46.4897 97.301 46.2783C97.2678 46.0668 97.2512 45.869 97.2512 45.6848V42.98H98.0667V45.431C98.0667 45.6606 98.0878 45.8826 98.1301 46.097C98.1724 46.3115 98.2434 46.5048 98.3431 46.677C98.4458 46.8491 98.5817 46.985 98.7508 47.0847C98.923 47.1844 99.1374 47.2342 99.3942 47.2342C99.5965 47.2342 99.7808 47.1995 99.9469 47.13C100.113 47.0606 100.255 46.9579 100.373 46.8219C100.491 46.683 100.581 46.5078 100.645 46.2964C100.708 46.085 100.74 45.8388 100.74 45.5579L101.27 45.721C101.27 46.1922 101.184 46.5984 101.012 46.9397C100.842 47.281 100.602 47.5438 100.291 47.7281C99.9831 47.9093 99.6192 47.9999 99.1993 47.9999ZM100.83 47.873V46.5637H100.74V42.98H101.551V47.873H100.83ZM104.881 48.009C104.385 48.009 103.964 47.8987 103.617 47.6782C103.272 47.4547 103.01 47.1481 102.828 46.7585C102.647 46.3689 102.553 45.9249 102.547 45.4265C102.553 44.9161 102.649 44.4675 102.833 44.0809C103.02 43.6913 103.287 43.3877 103.635 43.1703C103.982 42.9528 104.4 42.8441 104.89 42.8441C105.406 42.8441 105.85 42.9709 106.222 43.2246C106.596 43.4784 106.847 43.8257 106.974 44.2667L106.176 44.5068C106.074 44.2229 105.906 44.0024 105.674 43.8453C105.444 43.6883 105.18 43.6097 104.881 43.6097C104.545 43.6097 104.269 43.6883 104.052 43.8453C103.834 43.9994 103.672 44.2138 103.567 44.4887C103.461 44.7605 103.407 45.0731 103.404 45.4265C103.41 45.9702 103.535 46.4097 103.78 46.7449C104.027 47.0772 104.394 47.2433 104.881 47.2433C105.201 47.2433 105.467 47.1708 105.678 47.0258C105.889 46.8778 106.05 46.6649 106.158 46.387L106.974 46.5999C106.805 47.056 106.54 47.4049 106.181 47.6465C105.822 47.8881 105.388 48.009 104.881 48.009ZM109.827 48.009C109.332 48.009 108.91 47.8987 108.563 47.6782C108.219 47.4547 107.956 47.1481 107.775 46.7585C107.594 46.3689 107.5 45.9249 107.494 45.4265C107.5 44.9161 107.595 44.4675 107.779 44.0809C107.967 43.6913 108.234 43.3877 108.581 43.1703C108.929 42.9528 109.347 42.8441 109.836 42.8441C110.353 42.8441 110.797 42.9709 111.168 43.2246C111.543 43.4784 111.793 43.8257 111.92 44.2667L111.123 44.5068C111.02 44.2229 110.853 44.0024 110.62 43.8453C110.39 43.6883 110.126 43.6097 109.827 43.6097C109.492 43.6097 109.216 43.6883 108.998 43.8453C108.781 43.9994 108.619 44.2138 108.513 44.4887C108.408 44.7605 108.353 45.0731 108.35 45.4265C108.356 45.9702 108.482 46.4097 108.726 46.7449C108.974 47.0772 109.341 47.2433 109.827 47.2433C110.147 47.2433 110.413 47.1708 110.625 47.0258C110.836 46.8778 110.996 46.6649 111.105 46.387L111.92 46.5999C111.751 47.056 111.487 47.4049 111.127 47.6465C110.768 47.8881 110.335 48.009 109.827 48.009ZM114.833 48.009C114.352 48.009 113.932 47.9033 113.573 47.6918C113.217 47.4774 112.939 47.1799 112.739 46.7993C112.54 46.4157 112.44 45.9687 112.44 45.4582C112.44 44.9236 112.539 44.4615 112.735 44.0719C112.931 43.6792 113.205 43.3772 113.555 43.1657C113.908 42.9513 114.322 42.8441 114.796 42.8441C115.289 42.8441 115.707 42.9573 116.051 43.1839C116.399 43.4104 116.658 43.7336 116.831 44.1534C117.006 44.5733 117.081 45.0731 117.057 45.653H116.242V45.3631C116.233 44.762 116.11 44.3135 115.875 44.0175C115.639 43.7185 115.289 43.569 114.824 43.569C114.325 43.569 113.946 43.729 113.686 44.0492C113.427 44.3694 113.297 44.8285 113.297 45.4265C113.297 46.0034 113.427 46.4504 113.686 46.7676C113.946 47.0847 114.316 47.2433 114.796 47.2433C115.12 47.2433 115.4 47.1693 115.639 47.0213C115.878 46.8733 116.065 46.6604 116.201 46.3825L116.976 46.6498C116.785 47.0817 116.498 47.417 116.115 47.6556C115.734 47.8912 115.307 48.009 114.833 48.009ZM113.025 45.653V45.0052H116.64V45.653H113.025ZM119.914 48.0044C119.331 48.0044 118.853 47.8776 118.478 47.6239C118.107 47.3671 117.879 47.0092 117.794 46.5501L118.619 46.4187C118.685 46.6845 118.838 46.8959 119.076 47.053C119.315 47.207 119.611 47.2841 119.964 47.2841C120.299 47.2841 120.562 47.2146 120.752 47.0757C120.943 46.9367 121.038 46.7479 121.038 46.5093C121.038 46.3704 121.006 46.2586 120.943 46.1741C120.879 46.0865 120.748 46.0049 120.549 45.9294C120.352 45.8539 120.055 45.7633 119.656 45.6576C119.224 45.5428 118.884 45.4235 118.637 45.2997C118.389 45.1758 118.212 45.0324 118.107 44.8693C118.001 44.7061 117.948 44.5083 117.948 44.2757C117.948 43.9888 118.027 43.7381 118.184 43.5237C118.341 43.3062 118.56 43.1386 118.841 43.0208C119.124 42.903 119.454 42.8441 119.828 42.8441C120.2 42.8441 120.532 42.903 120.825 43.0208C121.118 43.1386 121.354 43.3062 121.532 43.5237C121.713 43.7381 121.82 43.9888 121.853 44.2757L121.029 44.4253C120.99 44.1625 120.863 43.9556 120.648 43.8046C120.437 43.6535 120.163 43.5735 119.828 43.5644C119.511 43.5524 119.253 43.6082 119.053 43.7321C118.857 43.8559 118.759 44.0235 118.759 44.235C118.759 44.3528 118.795 44.4539 118.868 44.5385C118.943 44.6231 119.081 44.7031 119.28 44.7786C119.482 44.8541 119.775 44.9402 120.159 45.0369C120.591 45.1456 120.931 45.2649 121.178 45.3948C121.429 45.5217 121.607 45.6727 121.713 45.8479C121.819 46.02 121.872 46.233 121.872 46.4867C121.872 46.9579 121.698 47.3294 121.35 47.6012C121.003 47.87 120.524 48.0044 119.914 48.0044ZM124.719 48.0044C124.136 48.0044 123.658 47.8776 123.283 47.6239C122.912 47.3671 122.683 47.0092 122.599 46.5501L123.423 46.4187C123.49 46.6845 123.642 46.8959 123.881 47.053C124.12 47.207 124.416 47.2841 124.769 47.2841C125.104 47.2841 125.367 47.2146 125.557 47.0757C125.748 46.9367 125.843 46.7479 125.843 46.5093C125.843 46.3704 125.811 46.2586 125.748 46.1741C125.684 46.0865 125.553 46.0049 125.354 45.9294C125.157 45.8539 124.86 45.7633 124.461 45.6576C124.029 45.5428 123.689 45.4235 123.442 45.2997C123.194 45.1758 123.017 45.0324 122.912 44.8693C122.806 44.7061 122.753 44.5083 122.753 44.2757C122.753 43.9888 122.831 43.7381 122.989 43.5237C123.146 43.3062 123.365 43.1386 123.645 43.0208C123.929 42.903 124.259 42.8441 124.633 42.8441C125.005 42.8441 125.337 42.903 125.63 43.0208C125.923 43.1386 126.158 43.3062 126.337 43.5237C126.518 43.7381 126.625 43.9888 126.658 44.2757L125.834 44.4253C125.794 44.1625 125.668 43.9556 125.453 43.8046C125.242 43.6535 124.968 43.5735 124.633 43.5644C124.316 43.5524 124.058 43.6082 123.858 43.7321C123.662 43.8559 123.564 44.0235 123.564 44.235C123.564 44.3528 123.6 44.4539 123.673 44.5385C123.748 44.6231 123.886 44.7031 124.085 44.7786C124.287 44.8541 124.58 44.9402 124.964 45.0369C125.396 45.1456 125.736 45.2649 125.983 45.3948C126.234 45.5217 126.412 45.6727 126.518 45.8479C126.624 46.02 126.676 46.233 126.676 46.4867C126.676 46.9579 126.503 47.3294 126.155 47.6012C125.808 47.87 125.329 48.0044 124.719 48.0044ZM131.338 48.0044C130.755 48.0044 130.276 47.8776 129.902 47.6239C129.53 47.3671 129.302 47.0092 129.218 46.5501L130.042 46.4187C130.109 46.6845 130.261 46.8959 130.5 47.053C130.739 47.207 131.035 47.2841 131.388 47.2841C131.723 47.2841 131.986 47.2146 132.176 47.0757C132.367 46.9367 132.462 46.7479 132.462 46.5093C132.462 46.3704 132.43 46.2586 132.367 46.1741C132.303 46.0865 132.172 46.0049 131.972 45.9294C131.776 45.8539 131.479 45.7633 131.08 45.6576C130.648 45.5428 130.308 45.4235 130.061 45.2997C129.813 45.1758 129.636 45.0324 129.53 44.8693C129.425 44.7061 129.372 44.5083 129.372 44.2757C129.372 43.9888 129.45 43.7381 129.607 43.5237C129.765 43.3062 129.984 43.1386 130.264 43.0208C130.548 42.903 130.878 42.8441 131.252 42.8441C131.624 42.8441 131.956 42.903 132.249 43.0208C132.542 43.1386 132.777 43.3062 132.956 43.5237C133.137 43.7381 133.244 43.9888 133.277 44.2757L132.453 44.4253C132.413 44.1625 132.287 43.9556 132.072 43.8046C131.861 43.6535 131.587 43.5735 131.252 43.5644C130.935 43.5524 130.677 43.6082 130.477 43.7321C130.281 43.8559 130.183 44.0235 130.183 44.235C130.183 44.3528 130.219 44.4539 130.292 44.5385C130.367 44.6231 130.505 44.7031 130.704 44.7786C130.906 44.8541 131.199 44.9402 131.583 45.0369C132.015 45.1456 132.355 45.2649 132.602 45.3948C132.853 45.5217 133.031 45.6727 133.137 45.8479C133.243 46.02 133.295 46.233 133.295 46.4867C133.295 46.9579 133.122 47.3294 132.774 47.6012C132.427 47.87 131.948 48.0044 131.338 48.0044ZM134.797 50.0477L135.744 47.4744L135.758 48.2355L133.619 42.98H134.466L136.143 47.207H135.853L137.425 42.98H138.245L135.581 50.0477H134.797ZM140.842 48.0044C140.259 48.0044 139.78 47.8776 139.406 47.6239C139.034 47.3671 138.806 47.0092 138.722 46.5501L139.546 46.4187C139.613 46.6845 139.765 46.8959 140.004 47.053C140.242 47.207 140.538 47.2841 140.892 47.2841C141.227 47.2841 141.49 47.2146 141.68 47.0757C141.87 46.9367 141.965 46.7479 141.965 46.5093C141.965 46.3704 141.934 46.2586 141.87 46.1741C141.807 46.0865 141.675 46.0049 141.476 45.9294C141.28 45.8539 140.982 45.7633 140.584 45.6576C140.152 45.5428 139.812 45.4235 139.564 45.2997C139.317 45.1758 139.14 45.0324 139.034 44.8693C138.928 44.7061 138.876 44.5083 138.876 44.2757C138.876 43.9888 138.954 43.7381 139.111 43.5237C139.268 43.3062 139.487 43.1386 139.768 43.0208C140.052 42.903 140.381 42.8441 140.756 42.8441C141.127 42.8441 141.46 42.903 141.752 43.0208C142.045 43.1386 142.281 43.3062 142.459 43.5237C142.64 43.7381 142.748 43.9888 142.781 44.2757L141.956 44.4253C141.917 44.1625 141.79 43.9556 141.576 43.8046C141.364 43.6535 141.091 43.5735 140.756 43.5644C140.439 43.5524 140.18 43.6082 139.981 43.7321C139.785 43.8559 139.687 44.0235 139.687 44.235C139.687 44.3528 139.723 44.4539 139.795 44.5385C139.871 44.6231 140.008 44.7031 140.208 44.7786C140.41 44.8541 140.703 44.9402 141.086 45.0369C141.518 45.1456 141.858 45.2649 142.106 45.3948C142.357 45.5217 142.535 45.6727 142.64 45.8479C142.746 46.02 142.799 46.233 142.799 46.4867C142.799 46.9579 142.625 47.3294 142.278 47.6012C141.931 47.87 141.452 48.0044 140.842 48.0044ZM146.53 47.873C146.24 47.9304 145.953 47.9531 145.669 47.941C145.389 47.9319 145.138 47.8761 144.917 47.7734C144.697 47.6677 144.529 47.5046 144.414 47.2841C144.318 47.0908 144.265 46.8959 144.256 46.6996C144.25 46.5003 144.247 46.2753 144.247 46.0246V41.6208H145.053V45.9883C145.053 46.1877 145.055 46.3583 145.058 46.5003C145.064 46.6422 145.096 46.7646 145.153 46.8673C145.262 47.0606 145.434 47.1738 145.669 47.207C145.908 47.2403 146.195 47.2312 146.53 47.1799V47.873ZM143.255 43.646V42.98H146.53V43.646H143.255ZM149.44 48.009C148.96 48.009 148.54 47.9033 148.181 47.6918C147.825 47.4774 147.547 47.1799 147.347 46.7993C147.148 46.4157 147.048 45.9687 147.048 45.4582C147.048 44.9236 147.146 44.4615 147.343 44.0719C147.539 43.6792 147.812 43.3772 148.163 43.1657C148.516 42.9513 148.93 42.8441 149.404 42.8441C149.897 42.8441 150.315 42.9573 150.659 43.1839C151.007 43.4104 151.266 43.7336 151.438 44.1534C151.614 44.5733 151.689 45.0731 151.665 45.653H150.849V45.3631C150.84 44.762 150.718 44.3135 150.482 44.0175C150.247 43.7185 149.897 43.569 149.431 43.569C148.933 43.569 148.554 43.729 148.294 44.0492C148.034 44.3694 147.905 44.8285 147.905 45.4265C147.905 46.0034 148.034 46.4504 148.294 46.7676C148.554 47.0847 148.924 47.2433 149.404 47.2433C149.727 47.2433 150.008 47.1693 150.247 47.0213C150.485 46.8733 150.673 46.6604 150.809 46.3825L151.583 46.6498C151.393 47.0817 151.106 47.417 150.723 47.6556C150.342 47.8912 149.915 48.009 149.44 48.009ZM147.633 45.653V45.0052H151.248V45.653H147.633ZM158.39 47.873L158.394 44.7424C158.394 44.3769 158.296 44.0915 158.1 43.8861C157.907 43.6777 157.654 43.5735 157.343 43.5735C157.162 43.5735 156.99 43.6158 156.827 43.7004C156.664 43.7819 156.531 43.9118 156.428 44.09C156.325 44.2652 156.274 44.4902 156.274 44.765L155.848 44.5929C155.842 44.2455 155.913 43.942 156.061 43.6822C156.212 43.4195 156.418 43.2156 156.677 43.0706C156.937 42.9256 157.23 42.8531 157.556 42.8531C158.067 42.8531 158.468 43.0087 158.761 43.3198C159.054 43.6279 159.201 44.0432 159.201 44.5657L159.196 47.873H158.39ZM152.536 47.873V42.98H153.257V44.2893H153.347V47.873H152.536ZM155.468 47.873L155.472 44.7741C155.472 44.3996 155.376 44.1066 155.182 43.8952C154.989 43.6807 154.732 43.5735 154.412 43.5735C154.095 43.5735 153.838 43.6822 153.642 43.8997C153.446 44.1172 153.347 44.4056 153.347 44.765L152.922 44.5113C152.922 44.1942 152.997 43.9103 153.148 43.6596C153.299 43.4089 153.504 43.2126 153.764 43.0706C154.024 42.9256 154.318 42.8531 154.648 42.8531C154.977 42.8531 155.264 42.9226 155.508 43.0615C155.753 43.2005 155.942 43.3998 156.075 43.6596C156.208 43.9163 156.274 44.2229 156.274 44.5793L156.27 47.873H155.468ZM162.23 48.0044C161.647 48.0044 161.168 47.8776 160.793 47.6239C160.422 47.3671 160.194 47.0092 160.109 46.5501L160.934 46.4187C161 46.6845 161.153 46.8959 161.391 47.053C161.63 47.207 161.926 47.2841 162.279 47.2841C162.615 47.2841 162.877 47.2146 163.068 47.0757C163.258 46.9367 163.353 46.7479 163.353 46.5093C163.353 46.3704 163.321 46.2586 163.258 46.1741C163.195 46.0865 163.063 46.0049 162.864 45.9294C162.667 45.8539 162.37 45.7633 161.971 45.6576C161.539 45.5428 161.2 45.4235 160.952 45.2997C160.704 45.1758 160.528 45.0324 160.422 44.8693C160.316 44.7061 160.263 44.5083 160.263 44.2757C160.263 43.9888 160.342 43.7381 160.499 43.5237C160.656 43.3062 160.875 43.1386 161.156 43.0208C161.44 42.903 161.769 42.8441 162.143 42.8441C162.515 42.8441 162.847 42.903 163.14 43.0208C163.433 43.1386 163.669 43.3062 163.847 43.5237C164.028 43.7381 164.135 43.9888 164.169 44.2757L163.344 44.4253C163.305 44.1625 163.178 43.9556 162.963 43.8046C162.752 43.6535 162.479 43.5735 162.143 43.5644C161.826 43.5524 161.568 43.6082 161.369 43.7321C161.172 43.8559 161.074 44.0235 161.074 44.235C161.074 44.3528 161.11 44.4539 161.183 44.5385C161.258 44.6231 161.396 44.7031 161.595 44.7786C161.798 44.8541 162.091 44.9402 162.474 45.0369C162.906 45.1456 163.246 45.2649 163.494 45.3948C163.744 45.5217 163.922 45.6727 164.028 45.8479C164.134 46.02 164.187 46.233 164.187 46.4867C164.187 46.9579 164.013 47.3294 163.666 47.6012C163.318 47.87 162.84 48.0044 162.23 48.0044Z" fill="#F89F1C"/>
<path d="M87.1117 18.3328C83.1532 18.3328 82.3893 17.9855 80.0975 17.9855C75.3404 17.9855 72.1111 20.937 72.1111 25.1386C72.1111 28.9929 75.514 31.9443 79.9239 31.9443C80.3753 31.9443 80.792 31.9096 81.2087 31.8749C83.1185 32.0832 84.2643 33.4722 84.2643 35.4514C84.2643 37.5695 82.6323 39.0279 80.1323 39.0279C75.2015 38.9932 76.2085 33.6458 73.639 33.6458C72.4931 33.6458 71.9723 34.4444 71.9723 35.2778C71.9723 37.7431 74.7501 40.3127 79.9934 40.3127C84.7852 40.3127 88.3617 38.3682 88.3617 35.2778C88.3617 33.368 87.0769 31.8054 84.056 31.111C86.5214 29.9651 88.0839 27.7428 88.0839 24.9649C88.0839 23.2635 87.1811 21.4926 85.8963 20.3467C86.938 20.0689 88.1881 20.2078 88.6048 19.305C88.9173 18.7842 88.6395 18.3328 87.1117 18.3328ZM76.1391 23.3677C76.1391 21.0065 77.3891 19.305 79.4378 19.305C82.2157 19.305 84.056 22.7079 84.056 26.4928C84.056 28.854 82.7365 30.5901 80.5837 30.5901C78.153 30.5901 76.1391 27.2914 76.1391 23.3677ZM91.5584 35H96.8364C97.2878 35 97.6003 34.7917 97.6003 34.4791V34.375C97.6003 33.5763 96.1766 33.4722 96.1766 32.118V9.54774C96.1766 9.02689 95.7252 8.61021 94.9266 8.99217L91.4195 10.7283C91.0723 10.902 90.8292 11.0408 90.8292 11.3534V11.4575C90.8292 12.0826 92.114 12.3603 92.114 13.8187V32.118C92.114 33.4722 90.8292 33.5763 90.8292 34.375V34.4791C90.8292 34.7917 91.107 35 91.5584 35ZM109.053 35.3472C114.088 35.3472 117.422 31.5277 117.422 26.7706C117.422 21.9787 113.741 17.9855 108.255 17.9855C103.498 17.9855 99.6433 21.562 99.6433 26.4928C99.6433 31.111 103.15 35.3472 109.053 35.3472ZM109.574 34.0277C106.067 34.0277 103.741 29.4443 103.741 25.1386C103.741 21.319 105.338 19.305 107.803 19.305C110.998 19.305 113.324 23.3329 113.324 28.1942C113.324 31.9443 111.727 34.0277 109.574 34.0277ZM129.48 17.9855C127.605 17.9855 125.973 18.6453 124.896 19.8259V9.58247C124.896 8.85328 124.376 8.64493 123.646 8.99217L120.07 10.6936C119.549 10.9367 119.375 11.0756 119.375 11.3881V11.4923C119.375 12.2562 120.869 12.3603 120.869 13.8534V32.0832C120.869 33.4722 119.549 33.6805 119.549 34.4097V34.5139C119.549 34.8264 119.792 35 120.174 35L123.924 35.0694C124.376 35.0694 124.619 34.8611 124.619 34.4097L124.584 33.1597C125.765 34.5486 127.431 35.3472 129.515 35.3472C133.89 35.3472 137.536 31.6666 137.536 26.3886C137.536 21.1106 133.647 17.9855 129.48 17.9855ZM129.029 34.0277C126.91 34.0277 124.896 31.6318 124.896 29.097V23.2288C124.896 21.0065 126.528 19.305 128.473 19.305C131.459 19.305 133.438 22.7079 133.438 27.6734C133.438 31.736 131.772 34.0277 129.029 34.0277ZM154.694 31.8749L154 25.208C153.514 20.7287 150.701 17.9855 146.326 17.9855C142.611 17.9855 139.902 19.687 139.902 21.8746C139.902 22.8468 140.562 23.4718 141.604 23.4718C143.791 23.4718 143.097 19.2703 146.326 19.2703C148.757 19.2703 149.59 21.3537 149.972 25.3816L150.041 26.0761C149.104 25.3469 147.715 24.8955 146.013 24.8955C142.506 24.8955 139.659 26.7011 139.694 30.104C139.694 33.5069 142.402 35.3472 146.187 35.3472C148.652 35.3472 150.215 34.4097 151.014 33.1249C151.152 34.8264 152.021 35.2083 153.791 35.2083C155.285 35.2083 156.604 35 156.604 34.3403C156.604 33.4374 154.937 34.1319 154.694 31.8749ZM147.333 34.0277C145.18 34.0277 143.791 31.9791 143.791 29.6179C143.791 27.5345 145.145 26.215 147.055 26.215C148.895 26.215 150.215 27.465 150.354 29.4443L150.458 30.5207C150.562 32.3957 149.277 34.0277 147.333 34.0277ZM158.496 35H163.774C164.225 35 164.538 34.7917 164.538 34.4791V34.375C164.538 33.5763 163.114 33.4722 163.114 32.118V9.54774C163.114 9.02689 162.663 8.61021 161.864 8.99217L158.357 10.7283C158.01 10.902 157.767 11.0408 157.767 11.3534V11.4575C157.767 12.0826 159.051 12.3603 159.051 13.8187V32.118C159.051 33.4722 157.767 33.5763 157.767 34.375V34.4791C157.767 34.7917 158.045 35 158.496 35Z" fill="#005DF2"/>
<path d="M55.8768 29.3947C55.8768 42.8679 44.7661 53.7893 31.0614 53.7893C17.3568 53.7893 6.24609 42.8679 6.24609 29.3947C6.24609 15.9215 17.3568 5.00002 31.0614 5.00002C34.4148 4.99569 37.7339 5.66186 40.8172 6.95804L37.1951 14.9797C34.0472 13.6849 30.5589 13.4203 27.2462 14.2251C23.9335 15.0298 20.9722 16.8613 18.8002 19.4485C16.6282 22.0358 15.3609 25.2415 15.1856 28.5915C15.0103 31.9416 15.9364 35.2582 17.8269 38.0509C19.7174 40.8435 22.472 42.964 25.6832 44.0986C28.8944 45.2333 32.3918 45.3219 35.6583 44.3514C38.9247 43.3809 41.7867 41.4027 43.821 38.7095C45.8554 36.0163 46.954 32.751 46.9545 29.3965C46.9545 29.3403 46.9545 29.2851 46.9545 29.2299L35.9505 35.8579L31.5297 29.0725L44.4823 21.4751L44.7773 21.5C44.7492 21.4503 44.7193 21.4024 44.6893 21.3536L52.353 16.8577C52.7898 17.5713 53.1883 18.3069 53.547 19.0615C54.3298 20.7017 54.9228 22.4232 55.3149 24.1935C55.6899 25.9027 55.8783 27.6462 55.8768 29.3947Z" fill="#005DF2"/>
<path d="M63.6766 15.8562C60.6079 10.0227 43.976 12.4824 26.5266 21.351C22.6159 23.3302 18.844 25.5638 15.236 28.037C15.1967 28.4844 15.1771 28.937 15.1771 29.3948C15.1768 30.098 15.2247 30.8004 15.3203 31.4973C18.8553 28.4061 23.5553 25.2523 28.9828 22.4943C42.5976 15.5746 55.6298 13.7611 58.0917 18.4439C59.1218 20.3946 58.146 23.1654 55.6785 26.2355C53.5069 28.9364 50.1779 31.8674 46.0333 34.6751C43.4256 36.4312 40.7083 38.0247 37.8976 39.4463C33.8298 41.5139 29.8144 43.1285 26.1173 44.2442C20.7095 45.881 15.9833 46.4628 12.7714 45.8745C10.8283 45.5192 9.44049 44.7358 8.78968 43.4986C8.27089 42.5118 8.26246 41.315 8.70165 39.9766C7.88681 38.3155 7.26787 36.5683 6.85689 34.769C1.4256 39.9793 -1.15145 44.8472 0.489173 47.9706C2.31708 51.4457 8.95917 51.9778 17.7195 49.9645C22.1797 48.94 27.1886 47.2554 32.3914 44.9641C34.1238 44.2019 35.8718 43.3734 37.6354 42.4786C39.5938 41.4838 41.4748 40.4546 43.2783 39.3911C48.1964 36.4959 52.4759 33.4075 55.8583 30.4C62.2691 24.6908 65.4595 19.2457 63.6766 15.8562Z" fill="#F89F1C"/>
<path d="M20.9997 41.5L33.969 44.2515L15.2002 61L16.5149 50.2277L21.4808 48.8773L20.9997 41.5Z" fill="white"/>
<path d="M18.735 46.5936L13.7822 40.2031L29.8794 45.2238L17.6787 56.7234L18.6573 49.0275L18.735 46.5936Z" fill="#F89F1C"/>
<path d="M64.1409 18.459C64.1409 35.1615 28.3816 49.3748 28.1025 49.4816L33.9646 44.251C35.1801 43.6901 36.4024 43.0979 37.6316 42.4744C52.7868 34.7758 63.5688 24.7777 64.1409 18.459Z" fill="white"/>
</svg>
