<svg width="126" height="126" viewBox="0 0 126 126" fill="none" xmlns="http://www.w3.org/2000/svg">
<path d="M61.249 0.814453H126V72.04H61.249V0.814453Z" fill="white"/>
<path d="M0.814453 63.4062H78.515V72.0396H0.814453V63.4062Z" fill="#454A6D"/>
<path d="M48.2998 63.4068V46.14L55.1461 52.9863C58.5174 56.3576 63.9845 56.3576 67.3559 52.9863L82.8334 37.5066L74.2 28.8732L61.2499 41.8233L50.8833 29.7301C49.243 27.8156 46.8494 26.7148 44.3284 26.7148H13.7662C8.99842 26.7148 5.13281 30.5804 5.13281 35.3482V54.7734C5.13281 59.5412 8.99842 63.4068 13.7662 63.4068H48.2998Z" fill="#005DF2"/>
<path d="M35.348 63.4056H31.0313V54.7722C31.0313 53.5808 30.0622 52.6139 28.8729 52.6139H15.9229V43.9805H20.2396V48.2972H28.8729C32.4429 48.2972 35.348 51.2023 35.348 54.7722V63.4056Z" fill="#5496FF"/>
<path d="M37.5063 15.9229C37.5063 22.2318 32.091 27.278 25.6548 26.665C20.0431 26.1297 15.9229 21.0965 15.9229 15.4589V5.13115C15.9229 2.74618 17.8546 0.814453 20.2396 0.814453H33.1896C35.5746 0.814453 37.5063 2.74618 37.5063 5.13115V7.2895L41.823 15.9229H37.5063Z" fill="#B6D2FF"/>
<path d="M20.2412 26.7148L26.7163 39.6649L33.1913 26.7148H20.2412Z" fill="white"/>
<path d="M102.256 18.3363L89.3055 11.8612L77.3202 17.855L75.3906 13.9915L89.3055 7.03516L102.256 13.5102L114.241 7.51647L116.17 11.3799L102.256 18.3363Z" fill="#454A6D"/>
<path d="M74.8193 29.5117L87.767 16.564L90.819 19.6159L77.8712 32.5636L74.8193 29.5117Z" fill="#454A6D"/>
<path d="M91.4629 31.0312H117.363V35.3479H91.4629V31.0312Z" fill="#454A6D"/>
<path d="M91.4629 39.6641H117.363V43.9808H91.4629V39.6641Z" fill="#454A6D"/>
<path d="M91.4629 48.2988H117.363V52.6155H91.4629V48.2988Z" fill="#454A6D"/>
<path d="M91.4629 56.9316H117.363V61.2483H91.4629V56.9316Z" fill="#454A6D"/>
<path d="M18.0789 102.256C12.1197 102.256 7.28711 107.088 7.28711 113.048V125.998H28.8706V113.048C28.8706 107.088 24.0381 102.256 18.0789 102.256Z" fill="#5496FF"/>
<path d="M18.0777 102.257C22.8458 102.257 26.7111 98.3917 26.7111 93.6236C26.7111 88.8555 22.8458 84.9902 18.0777 84.9902C13.3096 84.9902 9.44434 88.8555 9.44434 93.6236C9.44434 98.3917 13.3096 102.257 18.0777 102.257Z" fill="#5496FF"/>
<path d="M48.2957 102.256C42.3365 102.256 37.5039 107.088 37.5039 113.048V125.998H59.0874V113.048C59.0874 107.088 54.2549 102.256 48.2957 102.256Z" fill="#5496FF"/>
<path d="M48.2955 102.257C53.0636 102.257 56.9289 98.3917 56.9289 93.6236C56.9289 88.8555 53.0636 84.9902 48.2955 84.9902C43.5274 84.9902 39.6621 88.8555 39.6621 93.6236C39.6621 98.3917 43.5274 102.257 48.2955 102.257Z" fill="#5496FF"/>
<path d="M78.5134 102.256C72.5542 102.256 67.7217 107.088 67.7217 113.048V125.998H89.3052V113.048C89.3052 107.088 84.4726 102.256 78.5134 102.256Z" fill="#5496FF"/>
<path d="M78.5123 102.257C83.2804 102.257 87.1457 98.3917 87.1457 93.6236C87.1457 88.8555 83.2804 84.9902 78.5123 84.9902C73.7442 84.9902 69.8789 88.8555 69.8789 93.6236C69.8789 98.3917 73.7442 102.257 78.5123 102.257Z" fill="#5496FF"/>
<path d="M108.727 102.256C102.768 102.256 97.9355 107.088 97.9355 113.048V125.998H119.519V113.048C119.519 107.088 114.686 102.256 108.727 102.256Z" fill="#5496FF"/>
<path d="M108.73 102.257C113.498 102.257 117.363 98.3917 117.363 93.6236C117.363 88.8555 113.498 84.9902 108.73 84.9902C103.962 84.9902 100.097 88.8555 100.097 93.6236C100.097 98.3917 103.962 102.257 108.73 102.257Z" fill="#5496FF"/>
<path d="M5.13281 72.0391H74.2V82.8308H5.13281V72.0391Z" fill="#33385C"/>
</svg>
