<svg width="117" height="126" viewBox="0 0 117 126" fill="none" xmlns="http://www.w3.org/2000/svg">
<path d="M32.5835 15.9229C32.5835 22.2318 27.1682 27.278 20.732 26.665C15.1203 26.1297 11 21.0965 11 15.4589V5.13115C11 2.74618 12.9317 0.814453 15.3167 0.814453H28.2668C30.6518 0.814453 32.5835 2.74618 32.5835 5.13115V7.2895L36.9002 15.9229H32.5835Z" fill="#B6D2FF"/>
<path d="M0 36C0 31.0294 4.02944 27 9 27H37C41.9706 27 46 31.0294 46 36V69H9C4.02944 69 0 64.9706 0 60V36Z" fill="#005DF2"/>
<path d="M22.2857 40L16 27H28L22.2857 40Z" fill="white"/>
<circle cx="39" cy="34" r="7" fill="#005DF2"/>
<circle cx="58" cy="53" r="7" fill="#005DF2"/>
<path d="M53 57.5L34 39L43.5 28.5L62 47.5L53 57.5Z" fill="#005DF2"/>
<path d="M84.4165 15.9229C84.4165 22.2318 89.8318 27.278 96.268 26.665C101.88 26.1297 106 21.0965 106 15.4589V5.13115C106 2.74618 104.068 0.814453 101.683 0.814453H88.7332C86.3482 0.814453 84.4165 2.74618 84.4165 5.13115V7.2895L80.0998 15.9229H84.4165Z" fill="#B6D2FF"/>
<path d="M117 36C117 31.0294 112.971 27 108 27H80C75.0294 27 71 31.0294 71 36V69H108C112.971 69 117 64.9706 117 60V36Z" fill="#5496FF"/>
<path d="M94.7143 40L101 27H89L94.7143 40Z" fill="white"/>
<circle cx="7" cy="7" r="7" transform="matrix(-1 0 0 1 85 27)" fill="#5496FF"/>
<circle cx="7" cy="7" r="7" transform="matrix(-1 0 0 1 66 46)" fill="#5496FF"/>
<path d="M64 57.5L83 39L73.5 28.5L55 47.5L64 57.5Z" fill="#5496FF"/>
<path d="M1 63H117V72H1V63Z" fill="#454A6D"/>
<path d="M7 72H111V83H7V72Z" fill="#33385C"/>
<path d="M1 83H117V126H1V83Z" fill="#454A6D"/>
</svg>
