<svg width="510" height="147" viewBox="0 0 510 147" fill="none" xmlns="http://www.w3.org/2000/svg">
<path d="M510 9.64749V144.329C509.174 144.312 508.35 144.174 507.536 143.916C506.557 143.563 506.041 143.118 506.101 142.188C506.235 140.505 503.678 138.797 501.562 138.914C499.555 139.026 497.499 139.091 495.514 138.875C494.074 138.718 492.482 139.013 491.162 138.221C490.687 137.913 490.119 138.273 489.667 138.502C488.744 138.959 487.863 139.645 487.05 140.538C486.876 140.798 486.673 140.991 486.454 141.104C486.235 141.216 486.005 141.247 485.779 141.193C484.817 140.974 483.839 141.149 482.923 141.703C481.559 142.443 480.092 142.36 478.758 141.468C477.93 140.849 477.004 140.757 476.141 141.206C475.603 141.468 475.618 141.933 475.446 142.338C475.354 142.518 475.236 142.652 475.105 142.727C474.973 142.802 474.833 142.814 474.698 142.764C474.324 142.705 474.022 142.469 474.111 142.194C474.448 141.14 473.64 140.46 472.967 139.707C472.727 139.475 472.536 139.112 472.425 138.672C472.313 138.063 471.838 137.743 471.244 137.435C469.984 136.78 468.739 136.126 467.506 135.412C465.879 134.482 464.07 134.476 462.208 134.705C461.564 134.797 460.939 135.127 460.373 135.674C460.096 135.903 460.077 136.126 460.395 136.329C461.797 137.73 461.487 139.117 459.322 140.348C458.3 140.879 457.259 141.284 456.204 141.559C455.477 141.729 454.737 141.656 454.025 141.343C451.913 140.564 451.569 140.689 450.32 142.332C449.983 142.78 449.624 143.177 449.247 143.517C448.548 144.172 446.971 144.375 446.032 144.014C445.202 143.7 444.806 143.006 445.475 142.221C446.765 140.721 446.017 139.766 444.503 138.829C443.591 138.279 443.09 137.52 443.142 136.577C443.142 136.387 443.056 136.132 442.683 136.145C442.57 136.124 442.457 136.144 442.349 136.205C442.241 136.266 442.142 136.366 442.058 136.499C441.834 137.153 441.43 137.71 441.228 138.299C440.462 140.59 437.793 141.9 436.72 144.001C436.62 144.178 436.498 144.315 436.365 144.401C435.322 145.154 431.482 144.636 430.944 143.582C430.537 142.79 430.021 142.6 429.075 142.869C427.284 143.393 425.516 143.713 423.972 142.404C423.598 142.096 423.063 142.234 422.596 142.293C421.169 142.505 419.735 142.505 418.308 142.293C417.492 142.223 416.674 142.283 415.863 142.469C414.376 142.822 412.862 142.546 411.448 141.664C410.888 141.265 410.222 140.97 409.658 140.577C408.83 139.976 407.934 139.725 407.041 139.844C406.3 139.945 405.556 139.868 404.828 139.615C402.958 138.96 400.943 139.085 398.981 138.96C397.938 138.882 397.265 139.176 396.966 139.988C396.659 140.727 396.245 141.308 395.766 141.671C394.711 142.582 393.537 142.991 392.364 142.856C390.558 142.777 388.674 142.535 386.999 143.51C386.47 143.673 385.932 143.73 385.395 143.681C384.625 143.708 383.861 143.928 383.126 144.335C381.07 145.435 378.928 145.861 376.677 144.63C375.976 144.28 375.245 144.143 374.517 144.224C372.603 144.409 370.702 143.59 369.055 141.874C367.462 140.368 365.159 139.687 362.744 140.302C361.025 140.741 360.318 140.525 359.38 139.261C359.006 138.751 358.595 138.247 358.258 137.71C357.654 136.862 356.915 136.363 356.142 136.283L355.869 136.217C354.577 135.885 353.298 135.417 352.038 134.816C350.58 134.161 350.198 134.24 349.002 135.189C348.808 135.34 348.628 135.517 348.441 135.667L348.015 135.995C346.852 136.911 346.95 137.042 347.94 138.351L348.269 138.77C348.737 139.353 349.552 140.021 348.684 140.623C347.981 141.108 346.987 140.708 346.187 140.407C345.189 140.021 344.654 139.399 344.471 138.509C344.344 137.854 343.783 137.913 343.279 138.286C343.079 138.472 342.89 138.691 342.714 138.941C342.168 139.595 341.566 139.759 340.647 139.288C339.054 138.489 337.779 138.77 336.751 140.047C335.88 141.134 335.525 141.226 334.194 140.499C333.194 139.913 332.167 139.475 331.125 139.189C330.729 139.096 330.342 138.902 329.977 138.613L329.79 138.463C328.422 137.297 328.015 137.232 326.598 138.266L326.362 138.45C326.182 138.64 325.981 138.765 325.772 138.816C325.563 138.866 325.351 138.842 325.147 138.744C324.19 138.194 323.529 138.607 322.773 139.052C320.927 140.132 318.743 140.663 316.568 141.101C315.11 141.354 313.638 141.166 312.216 140.545C309.536 139.464 308.029 139.89 306.5 141.978C305.872 142.756 305.105 143.112 304.339 142.98C302.377 142.875 300.351 143.196 298.478 142.437C297.827 142.203 297.155 142.243 296.515 142.555C296.1 142.744 295.719 142.98 295.3 143.157C293.921 143.766 292.971 143.537 292.261 142.443C290.59 139.89 287.644 138.738 284.003 139.248C282.935 139.422 281.858 139.307 280.81 138.908C279.988 138.548 279.148 138.329 278.301 138.253C276.088 138.116 275.857 138.201 274.802 139.779C273.748 141.356 271.471 142.077 269.46 141.337C267.112 140.466 264.884 141.14 262.705 141.553C261.667 141.844 260.61 141.844 259.572 141.553C258.278 141.029 256.943 140.901 255.624 141.173C254.569 141.411 253.497 141.248 252.48 140.695C251.472 140.198 250.409 140.155 249.389 140.571C247.736 141.075 246.024 141.448 244.331 141.88C243.672 142.05 243 141.995 242.353 141.717C241.609 141.376 240.852 141.127 240.088 140.97C237.788 140.604 235.975 139.523 234.162 138.482C233.255 137.929 232.296 137.685 231.336 137.762C230.108 137.861 228.877 137.802 227.654 137.586C226.685 137.415 225.882 137.487 225.231 138.083C224.379 138.875 223.362 139.026 222.091 138.829C220.334 138.567 219.952 138.908 220.409 140.263C220.637 140.918 220.782 141.572 219.994 142.031C219.23 142.397 218.424 142.397 217.661 142.031L216.36 141.546C215.612 141.271 214.939 141.16 214.446 141.887C214.023 142.502 213.343 142.463 212.681 142.168C211.863 141.802 210.939 141.474 210.479 140.938C210.403 140.877 210.337 140.785 210.286 140.67C210.235 140.554 210.201 140.419 210.186 140.275C210.172 140.131 210.178 139.983 210.203 139.844C210.229 139.705 210.274 139.579 210.334 139.477C209.83 139.252 209.298 139.314 208.816 139.654C207.475 140.409 206.064 140.711 204.659 140.545C204.416 140.545 204.173 140.545 203.911 140.473C203.44 140.407 202.995 140.374 202.554 140.368C202.247 140.368 201.948 140.368 201.646 140.368C200.898 140.427 200.15 140.551 199.376 140.715C197.466 141.114 195.877 141.88 194.161 142.515C193.974 142.581 193.787 142.672 193.623 142.751C190.756 144.06 190.707 144.126 188.12 142.411C187.175 141.711 186.128 141.553 185.129 141.959C182.602 143.046 180.696 141.762 178.636 141.036C178.262 140.898 178.142 140.532 177.922 140.263C177.129 139.275 175.772 138.954 174.486 138.731C173.72 138.594 172.722 138.862 172.273 139.386C170.92 141.016 168.579 141.35 166.632 142.181C165.611 142.62 164.564 142.98 163.641 143.556C161.837 144.622 159.912 144.899 158.033 144.361C156.357 143.934 154.655 143.886 152.972 144.217C151.824 144.461 150.664 144.478 149.514 144.27C148.112 143.969 146.785 144.499 145.461 144.401C144.138 144.303 143.106 143.379 141.596 143.556C140.861 143.525 140.129 143.402 139.405 143.19C137.82 142.915 137.36 143.052 136.766 144.25C136.452 144.905 136.037 144.905 135.353 144.787C134.358 144.564 133.423 144.25 132.485 143.91C130.728 143.255 130.037 143.674 130.272 145.141C130.485 146.45 130.171 146.659 128.728 146.168C127.799 145.91 126.88 145.549 125.977 145.088C124.058 143.964 122.061 143.303 120.04 143.124C118.562 142.993 117.081 142.993 115.603 143.124C113.524 143.249 111.404 144.159 109.27 143.203C108.638 142.915 107.95 143.203 107.281 143.32C105.225 143.772 104.638 143.32 105 141.69C105.221 140.682 103.442 138.522 102.26 138.417C102.007 138.406 101.754 138.468 101.513 138.6C101.253 138.787 100.975 138.879 100.694 138.869C100.414 138.859 100.137 138.747 99.8826 138.541C99.4003 138.142 98.7611 138.207 98.1442 138.207C96.7049 138.207 96.432 138.482 96.7124 139.569C96.7535 139.726 96.8246 139.877 96.8732 140.041C97.4863 142.005 96.2526 142.934 93.774 142.411C93.4264 142.325 93.0264 142.221 92.989 141.952C92.8357 140.8 91.774 139.785 92.3161 138.502C92.7946 137.369 91.9759 136.662 90.5328 136.996C88.6935 137.422 86.7346 137.468 84.9776 138.122C84.657 138.245 84.3324 138.332 84.0056 138.384C82.6859 138.626 82.0766 138.338 81.7214 137.324C81.0896 135.517 79.4148 134.869 77.2914 135.661C76.5205 135.955 75.7383 136.149 74.9512 136.243C73.9112 136.329 72.8796 136.612 71.8745 137.088C71.0707 137.514 70.3791 137.599 69.8221 136.82C69.6895 136.623 69.533 136.482 69.3646 136.407C69.1962 136.332 69.0202 136.325 68.8501 136.387C68.3529 136.518 68.4165 136.885 68.4127 137.199C68.4356 137.523 68.4456 137.849 68.4426 138.175C68.3641 138.934 67.9903 139.517 66.9473 139.694C66.2511 139.771 65.5643 140.016 64.9061 140.42C63.4444 141.422 61.7621 141.363 60.0686 140.938C58.4387 140.538 56.8199 140.152 56.3302 138.535C56.1246 137.847 55.1638 137.494 54.2965 137.271C53.1974 136.996 52.2142 137.225 51.9563 138.07C51.2348 140.433 48.8198 140.924 46.401 141.343C44.6066 141.645 42.9206 142.325 41.0103 142.253C40.3385 142.287 39.6795 142.582 39.0812 143.118C38.83 143.322 38.5563 143.427 38.2794 143.427C38.0024 143.427 37.7287 143.322 37.4775 143.118C36.1316 142.181 34.4307 142.168 32.8082 142.194C29.9782 142.234 28.4231 141.579 27.3352 139.641C26.2473 137.703 26.0679 137.52 23.5781 138.266C21.3575 138.921 19.5032 139.209 17.6864 137.684C16.873 137.173 15.9926 137.086 15.1517 137.435C13.9668 137.845 12.754 137.951 11.5517 137.749C11.281 137.69 11.0073 137.69 10.7367 137.749C9.53225 138.163 8.28563 137.972 7.14035 137.199C6.5614 136.92 5.95688 136.842 5.36086 136.97C4.25626 137.18 3.13881 136.957 2.08976 136.315C1.59981 136.01 1.08002 135.879 0.56076 135.929H0V10.3742C0.408057 10.4955 0.802832 10.7275 1.17012 11.0616C1.34937 11.1844 1.54068 11.244 1.73312 11.2373C1.92555 11.2305 2.11533 11.1575 2.29164 11.0223C2.71782 10.6819 2.54959 10.3676 2.29164 9.98138C1.07292 8.37086 1.07292 8.30541 2.57202 6.80619C3.22297 6.23816 3.82358 5.50823 4.35523 4.63915C5.34965 2.72748 7.574 2.26918 9.78713 1.83054C9.9685 1.76316 10.1571 1.78918 10.3303 1.90534C10.5034 2.02151 10.6536 2.22286 10.7629 2.48522C11.2046 3.14357 11.7605 3.52068 12.3402 3.55515C12.9199 3.58963 13.4892 3.27946 13.9555 2.6751C14.6358 1.73236 15.5144 1.63418 16.6396 1.54907C17.6252 1.40685 18.6155 1.69479 19.5219 2.38708C20.6173 3.20544 22.1388 3.69639 23.4846 4.29215C23.9452 4.41896 24.4161 4.36758 24.8641 4.14159C25.5445 3.87971 26.2099 3.6048 26.909 3.37566C28.4268 2.90429 28.509 2.93042 29.0698 4.14159C29.3185 4.66731 29.668 5.01641 30.053 5.12361C31.0773 5.52951 31.7091 5.35933 32.1316 4.50825C32.7671 3.19888 32.7708 3.19887 34.4008 3.26433C35.572 3.38055 36.7454 3.11865 37.8625 2.49177C38.8687 1.92965 39.9268 1.70748 40.9803 1.83709C43.1038 2.0204 45.1786 2.374 46.9618 3.37566C47.8656 3.92989 48.8154 4.2196 49.7731 4.23325C50.6479 4.23325 50.9843 4.62608 50.7637 5.31349C50.3301 6.62286 51.3843 7.38228 52.4348 8.08934L52.846 8.37089C53.3548 8.6404 53.8951 8.66968 54.4124 8.45592C55.418 8.07809 56.4664 8.27551 57.4031 9.01902C57.6642 9.24631 57.9424 9.40722 58.2293 9.49692C59.6387 9.857 60.3639 10.5378 60.263 11.7687C60.192 12.6787 61.0967 13.0191 61.9976 13.078C63.3547 13.1893 64.7453 13.2155 66.1099 13.078C67.2314 12.9864 67.8893 12.1222 68.7753 11.6312C70.1698 10.8521 70.1399 10.7866 71.5305 11.461C72.0292 11.7284 72.5495 11.85 73.0708 11.821C74.4315 11.7293 75.8297 11.7424 77.1494 11.5068C78.8351 11.1581 80.5338 11.042 82.2298 11.1598C83.1757 11.258 83.7252 11.0551 83.8411 10.1516C83.8411 10.0861 83.8411 10.0206 83.871 9.96828C84.0579 8.82258 84.2972 8.85535 85.9421 8.69823C88.4132 8.456 90.5515 7.80785 91.4375 5.66049C92.0095 4.27257 92.4581 4.18085 94.1628 4.77661C94.6053 5.00314 95.0679 5.08525 95.5273 5.01884C97.1872 4.49509 98.4395 5.23488 99.7069 5.83719C100.522 6.23 101.202 6.76692 101.984 7.22519C102.309 7.47978 102.656 7.63688 103.012 7.68999C104.47 7.18589 105.718 8.0304 107.075 7.98457C107.315 7.93814 107.549 7.83005 107.771 7.66378C110.327 6.11824 113.022 5.39518 115.726 5.52951C117.016 5.58188 118.32 5.41167 119.621 5.37239C120.818 5.25208 122.019 5.43068 123.188 5.90272C124.432 6.51722 125.759 6.37648 126.952 5.50338C128.058 4.69444 129.25 4.31254 130.448 4.38382C131.805 4.38382 132.982 3.56551 134.437 3.78156C134.852 3.84048 135.151 3.50005 135.184 3.12688C135.191 2.74242 135.227 2.36124 135.293 1.99421C135.446 1.47701 135.932 1.13658 136.597 1.0973C137.263 1.05802 137.51 1.48357 137.622 1.92876C137.996 3.51309 139.117 4.5475 141.136 4.96649C141.389 5.02132 141.64 5.11556 141.883 5.24804C144.294 6.46267 146.816 6.85387 149.312 6.40029C149.987 6.31704 150.665 6.38298 151.33 6.59665C153.002 7.07456 154.676 7.54599 156.34 8.04355C157.461 8.37744 158.321 8.90118 158.669 9.92248C159.017 10.9438 159.417 11.2318 160.729 10.9634C162.291 10.6819 163.652 10.7015 164.979 11.533C165.889 11.9482 166.837 12.024 167.764 11.7555C169.041 11.5348 170.328 11.5942 171.596 11.9323C173.305 12.3055 174.18 11.8734 174.243 10.551C174.292 9.54929 174.266 8.54108 175.48 7.93222C176.882 7.23781 178.343 6.98728 179.795 7.19243C182.444 7.57663 185.111 7.05181 187.645 5.64739C188.31 5.235 189.036 5.235 189.701 5.64739C190.382 6.09912 190.412 6.65558 190.045 7.26443C189.769 7.71617 189.01 8.14829 189.671 8.69168C190.333 9.23506 191.07 8.78334 191.772 8.61312C193.858 8.1352 195.761 7.1662 198.038 7.14656C198.58 7.14656 199.13 6.87815 199.302 6.42642C199.81 5.11706 200.872 3.92558 201.025 2.45909C201.238 0.396839 202.386 -0.0810723 205.01 0.0105832C207.178 0.0891451 209.044 1.00566 211.171 1.1104C211.536 1.16605 211.894 1.32754 212.229 1.58831C214.15 2.89767 216.341 3.93211 218.405 5.06471C219.859 5.85688 221.302 6.70142 223.298 6.37408C224.102 6.23659 225.029 6.44609 225.418 7.11387C226.308 8.65237 227.979 8.4756 229.463 8.1679C231.078 7.86125 232.708 7.86125 234.323 8.1679C234.523 8.16298 234.722 8.19593 234.917 8.26612C236.413 9.20231 238.08 9.06483 239.777 8.84224C241.303 8.63274 242.581 9.29391 243.852 9.76529C245.389 10.3414 246.701 10.42 247.987 9.43147C248.712 8.91542 249.505 8.75469 250.278 8.96659C251.689 9.34117 253.131 9.04734 254.454 8.11555C256.234 6.90439 258.294 6.2955 260.473 5.78485C261.497 5.54261 262.522 5.71281 263.524 5.59496C265.8 5.35273 267.92 5.37896 269.905 6.53775C270.86 6.9484 271.835 7.19182 272.817 7.26443C274.384 7.52631 275.883 7.80779 276.877 8.94693C277.256 9.25194 277.66 9.45291 278.073 9.54272C278.481 9.67365 278.888 9.79153 279.3 9.90282C281.221 10.4466 283.166 10.6985 285.113 10.6557C285.692 10.6557 286.272 10.5837 286.862 10.4986C287.4 10.4886 287.927 10.2408 288.395 9.77839C288.851 9.21537 289.517 9.1237 290.313 9.03204C293.397 8.67852 296.436 8.3774 299.263 7.0222C301.169 6.07556 303.175 5.92092 305.121 6.57051C305.513 6.71661 305.913 6.789 306.313 6.78653C308.818 6.73415 311.102 7.44122 313.416 8.02389C314.358 8.25957 314.822 8.73094 314.874 9.57548C314.968 11.0158 315.401 11.2122 317.005 10.6492C317.713 10.3507 318.443 10.2447 319.17 10.3349C319.371 10.3775 319.576 10.3665 319.775 10.3022C322.575 9.02554 325.573 10.0076 328.437 9.98138C330.331 10.0721 332.216 10.4754 334.067 11.186L334.875 11.4479C336.378 11.9548 337.924 11.9415 339.424 11.4085C340.172 11.1401 340.875 10.7932 341.619 10.5182C342.74 10.1123 343.428 9.4576 343.862 8.55414C344.699 6.81268 345.652 6.59009 347.813 7.40189C349.555 8.02214 351.316 8.45938 353.088 8.71126C354.509 8.9404 355.526 9.30703 355.97 10.4396C356.24 11.0943 356.913 11.4544 357.746 11.6639C359.339 12.0567 359.675 11.9847 360.871 10.8652C361.035 10.6126 361.237 10.449 361.453 10.3944C361.669 10.3397 361.889 10.3964 362.086 10.5575C362.236 10.6626 362.389 10.7459 362.546 10.8063C363.032 11.186 363.496 11.5919 364.004 11.952C364.386 12.2888 364.809 12.4565 365.237 12.4405C365.665 12.4245 366.083 12.2253 366.457 11.8603C366.591 11.7425 366.673 11.5854 366.801 11.461C369.163 9.08447 371.305 8.18756 375.257 7.94533C375.946 7.87236 376.626 7.62767 377.276 7.21864C377.626 7.00343 377.998 6.91618 378.368 6.96235C378.738 7.00851 379.099 7.18706 379.429 7.487L380.005 8.00423C380.633 8.56071 381.283 9.09755 381.93 9.64093C382.801 10.3644 383.791 10.5199 384.722 10.0796C385.682 9.59929 386.687 9.45496 387.678 9.65492C388.67 9.85488 389.63 10.3951 390.502 11.2449C391.747 12.4102 393.306 13.0911 394.79 13.9095C396.274 14.7278 397.829 14.119 397.983 12.6721C398.01 12.4506 397.993 12.2191 397.934 12.0174C397.811 11.6377 397.609 11.2711 397.601 10.8914C397.601 10.6557 397.669 10.4135 397.889 10.1582C398.514 9.47766 399.215 9.04209 399.945 8.88148C400.691 8.66028 401.414 8.25471 402.095 7.67689C403.362 6.69486 404.506 6.60322 405.65 7.61143C406.611 8.46252 407.654 8.60651 408.932 8.54759C410.159 8.42261 411.389 8.71843 412.551 9.41836C414.207 10.5182 415.123 10.4986 416.933 9.48382C417.733 9.03387 418.589 8.97276 419.407 9.30704C421.081 9.90926 422.82 9.60088 424.391 8.42323C425.881 7.14237 427.427 6.07395 429.015 5.22838C430.57 4.40348 431.535 4.45588 432.496 5.66049C433.456 6.86511 434.454 6.96984 435.965 6.70797C436.985 6.55423 438.011 6.56734 439.03 6.74721C439.568 6.87223 440.113 6.85904 440.649 6.70797C441.976 6.20387 443.165 6.28896 444.04 7.10732C444.574 7.10732 444.679 6.93051 444.817 6.74066C445.438 5.86993 445.939 5.71281 446.855 6.24964C447.771 6.78648 448.458 7.45431 449.752 7.03531C451.045 6.61631 452.059 5.88959 452.537 4.79627C452.941 3.87317 453.797 3.34942 454.851 2.83222C456.649 1.98768 458.406 1.24792 460.597 1.3854C461.467 1.38243 462.335 1.51165 463.191 1.77164C463.631 1.98077 464.082 2.09727 464.537 2.11864C467.087 1.94842 468.713 3.2054 470.395 4.39692C470.7 4.64444 471.015 4.85023 471.337 5.01237C472.384 5.4641 473.371 5.11052 473.3 4.14159C473.192 2.65546 474.545 2.17754 475.708 1.60142C476.063 1.37529 476.441 1.27677 476.819 1.31164C477.196 1.3465 477.566 1.51408 477.906 1.80441C478.466 2.25607 479.077 2.4799 479.693 2.45909C481.255 2.62276 482.56 3.11377 483.274 4.34458C483.727 5.12365 484.56 5.45099 485.633 5.3266C487.685 5.09091 489.719 5.67355 491.779 5.37895C492.418 5.34317 493.055 5.53933 493.648 5.95507C494.566 6.54259 495.564 6.63158 496.512 6.21041C496.754 6.08642 497.009 6.04855 497.26 6.09908C498.355 6.83232 500.082 6.91094 500.804 7.95188C502.77 10.7867 505.163 10.5706 509.166 9.81116C509.45 9.80461 509.727 9.72605 510 9.64749Z" fill="#D4E4FF"/>
<path d="M510 10.4341V121.211C509.814 121.289 509.632 121.392 509.454 121.517C508.748 121.961 507.973 121.941 507.275 121.459C506.2 120.881 505.091 120.514 503.97 120.364C503.665 120.243 503.346 120.281 503.054 120.475C502.845 120.716 503.076 120.931 503.289 121.126C503.716 121.491 504.161 121.856 504.594 122.215C505.028 122.573 505.409 122.866 505.761 123.205C506.232 123.668 506.759 124.169 506.359 124.762C505.959 125.355 505.02 125.323 504.209 125.336C503.798 125.336 503.387 125.336 502.979 125.297C501.816 125.043 500.983 124.547 500.542 123.746C500.101 122.944 499.544 122.827 498.844 123.57C498.044 124.424 496.171 124.039 495.48 124.99C494.586 125.725 493.588 125.988 492.609 125.746C492.476 125.707 492.341 125.707 492.209 125.746C489.79 126.952 486.407 127.05 484.597 128.939C483.614 129.962 482.32 130.366 480.556 130.158C479.016 129.969 477.905 130.379 477.255 131.396C476.803 132.087 476.051 132.419 474.855 132.484C472.948 132.582 471.068 132.875 469.169 133.071C467.838 133.208 467.632 133.136 467.299 132.21C466.967 131.285 466.077 130.308 466.38 129.206C466.529 128.672 466.006 128.249 465.258 128.183C464.317 128.129 463.394 127.729 462.548 127.01C461.502 126.294 460.38 125.981 459.258 126.092H455.766C454.969 125.921 454.163 125.891 453.362 126C451.946 126.118 450.712 126.463 450.704 127.682C450.704 127.962 450.704 128.275 450.245 128.392C449.843 128.456 449.44 128.304 449.089 127.955C448.383 127.551 448.207 126.939 447.841 126.398C446.719 124.736 445.545 124.332 443.149 124.854C441.003 125.31 439.141 126.085 437.859 127.388C437.114 128.087 436.256 128.332 435.422 128.086C435.048 128.008 434.614 127.968 434.207 127.955C431.848 127.864 430.147 127.239 429.634 125.499C429.47 124.938 428.887 124.443 428.102 124.235C426.326 123.765 424.531 123.225 422.599 123.896C421.467 124.214 420.316 124.284 419.174 124.104C416.551 123.905 413.924 124.123 411.323 124.756C410.394 124.993 409.451 125.007 408.52 124.795C406.872 124.388 405.196 124.496 403.57 125.114C402.74 125.417 401.9 125.619 401.054 125.72C400.202 125.844 399.794 125.655 399.787 124.997C399.787 124.033 399.697 124.013 398.441 124.293C396.194 124.747 393.979 125.588 391.827 126.802C390.395 127.622 388.922 128.213 387.427 128.568C385.711 129.004 384.063 129.591 382.392 130.112C380.926 130.598 379.446 130.94 377.958 131.135C376.339 131.328 374.739 131.844 373.188 132.673C372.026 133.286 370.84 133.755 369.64 134.074C368.625 134.336 367.624 134.748 366.649 135.306C365.287 136.019 363.862 136.297 362.443 136.127C360.245 135.996 358.054 135.892 355.849 135.938C354.727 135.938 353.561 136.023 352.409 136.14C350.933 136.311 349.45 136.169 347.994 135.716C347.352 135.518 346.719 135.233 346.102 134.863C344.648 133.934 343.047 133.992 341.616 135.026C341.06 135.559 340.434 135.829 339.799 135.807C339.491 135.779 339.183 135.879 338.902 136.101C337.852 137.033 336.551 136.889 335.19 136.531C334.117 136.301 333.037 136.188 331.956 136.192C330.932 136.146 330.42 136.472 330.36 137.169C330.353 137.263 330.34 137.354 330.322 137.443C330.257 137.811 330.126 138.133 329.949 138.362C329.587 138.721 329.171 138.885 328.756 138.831C327.997 138.925 327.239 138.643 326.569 138.017C326.466 137.911 326.376 137.772 326.304 137.606C326.176 137.328 326.116 136.976 326.135 136.622C326.225 135.436 325.761 134.322 325.466 133.168C324.636 133.129 324.935 133.963 324.143 133.898C323.739 133.69 323.922 133.396 323.937 133.129C323.952 132.862 323.81 132.628 323.32 132.517C321.72 132.132 320.819 131.279 320.277 130.223C320.098 129.871 319.937 129.506 319.739 129.161C319.622 128.851 319.47 128.586 319.293 128.382C319.116 128.179 318.916 128.04 318.707 127.975C317.997 127.727 317.642 128.294 317.077 128.385C315.901 128.645 314.735 129.025 313.585 129.526C312.415 129.956 312.09 130.575 312.307 131.402C312.524 132.23 312.815 133.058 313.054 133.892C313.22 134.319 313.354 134.781 313.454 135.267C313.567 136.179 313.383 136.309 312.075 136.433L310.654 136.602C309.436 136.739 308.509 136.42 307.851 135.716C307.555 135.403 307.267 135.065 307.013 134.752C305.929 133.331 304.396 132.224 302.325 131.494C301.26 131.116 300.766 130.608 300.37 129.728C299.914 128.724 300.037 127.994 300.546 127.121C300.942 126.418 301.147 125.603 300.418 124.795C299.491 125.447 299.585 126.528 298.475 126.984C297.488 127.395 296.347 127.636 295.308 127.975C292.272 129.018 292.265 129.017 290.497 127.069C290.149 126.678 289.784 126.336 289.405 126.046C288.803 125.596 288.519 125.114 288.751 124.502C288.833 124.287 289.031 124.033 288.56 123.909C288.25 123.816 287.932 123.884 287.644 124.104C286.392 125.316 284.653 126.359 284.736 128.014C284.739 128.208 284.714 128.401 284.665 128.574C284.429 129.513 284.003 129.878 282.665 129.878C279.449 129.878 276.234 130.119 273.016 129.988C271.495 129.872 269.98 129.585 268.481 129.128C267.183 128.717 265.87 128.458 264.552 128.353C262.832 128.281 262.159 128.607 261.673 129.708C261.61 129.886 261.554 130.071 261.505 130.262C260.866 132.217 260.17 132.556 257.307 132.51C255.542 132.51 253.755 132.458 252.073 133.045C251.108 133.328 250.12 133.259 249.172 132.843C245.93 131.678 242.648 130.883 239.347 130.464C237.011 130.132 235.982 131.116 236.865 132.641C237.455 133.638 238.177 134.595 238.809 135.592C239.085 136.023 239.343 136.459 239.34 136.948C239.336 137.437 239.213 137.795 238.476 137.945C237.74 138.095 237.295 137.945 237.063 137.43C236.9 137.208 236.723 137.018 236.536 136.863C235.844 137.515 235.134 137.417 234.214 137.124C232.345 136.531 230.584 135.82 228.607 135.358C227.362 135.04 226.094 135.131 224.868 135.625C222.984 136.436 221.038 136.715 219.103 136.453C217.032 136.158 214.953 136.832 213.081 138.407C212.187 139.163 211.346 139.945 210.464 140.714C210.406 140.757 210.35 140.805 210.296 140.858C209.668 141.385 209.01 141.946 208.053 141.086C207.944 141.002 207.827 140.958 207.709 140.955C206.673 141.247 205.612 141.021 204.647 140.304L204.202 140.023C203.831 139.804 203.432 139.773 203.05 139.932C202.891 140.021 202.727 140.087 202.561 140.128C202.259 140.196 201.954 140.196 201.652 140.128C201.278 140.069 200.905 139.939 200.564 139.828C199.682 139.528 199.032 139.04 198.718 138.375C198.404 137.71 198.116 137.124 197.817 136.498C197.443 135.703 196.744 135.084 195.671 134.68C194.295 134.159 192.8 133.748 192.306 132.556C192.243 132.406 191.839 132.334 191.715 132.178C191.48 131.832 191.179 131.654 190.872 131.68C190.565 131.705 190.275 131.932 190.059 132.315C189.267 131.872 189.611 131.396 189.685 130.966C189.85 130.06 189.454 129.369 188.426 128.724C186.762 127.675 185.274 126.502 183.711 125.375C183.314 125.137 182.961 124.719 182.687 124.163C182.048 122.684 180.646 121.843 178.433 121.439C176.42 121.001 174.386 120.931 172.365 121.231C171.858 121.254 171.355 121.398 170.87 121.661C169.7 122.586 168.272 122.508 166.941 122.019C165.071 121.328 162.828 121.367 161.004 120.527C160.249 120.234 159.462 120.313 158.731 120.755C157.023 121.698 155.235 122.121 153.445 122.006C150.69 121.824 149.007 122.873 148.028 124.215C146.286 126.6 143.302 128.216 141.018 130.249C140.222 130.959 139.407 131.657 138.585 132.354C138.304 132.658 137.98 132.82 137.65 132.823C137.295 132.751 137.328 132.543 137.235 132.38C136.764 131.546 136.45 131.474 135.556 132.028C135.201 132.25 134.902 132.517 134.592 132.758C133.847 133.319 133.033 133.544 132.225 133.409C131.495 133.315 130.76 133.399 130.042 133.657C129.388 133.892 128.734 134.204 128.079 133.592C127.704 133.409 127.307 133.409 126.932 133.592C125.904 133.823 124.89 134.207 123.9 134.739C122.479 135.592 121.821 135.443 120.161 134.81C117.361 133.761 114.554 132.621 111.126 132.914C109.906 133.055 108.683 132.796 107.518 132.152C106.303 131.497 105.062 130.996 103.806 130.653C103.431 130.486 103.048 130.39 102.662 130.366C99.8205 130.581 98.5083 129.161 97.5699 127.812C96.1344 125.759 94.2352 124.13 91.3641 122.977C90.1379 122.482 89.0425 121.804 87.7752 121.335C86.6985 120.931 85.1583 121.198 84.4442 120.227C84.1972 120.145 83.9436 120.145 83.6965 120.227C82.8345 120.606 81.9293 120.565 81.0796 120.11C80.6489 119.993 80.208 120.092 79.8085 120.396C79.2525 120.743 78.6793 121.001 78.0963 121.165C76.9299 121.433 76.186 121.276 75.442 120.579C73.7859 119.028 73.5279 118.976 70.8026 119.445C70.4063 119.517 70.01 119.601 69.6063 119.647C67.5015 119.875 66.0323 120.611 65.6061 122.097C65.0342 124.091 63.1014 125.056 60.3985 125.408C58.4096 125.668 56.7946 126.248 55.6656 127.421C55.2554 127.898 54.8789 128.458 54.5441 129.089C53.8898 130.138 53.2842 130.314 51.9271 129.663C51.4088 129.337 50.8416 129.337 50.3233 129.663C49.4598 130.249 48.555 130.054 47.6765 129.741C46.8877 129.461 46.1213 129.141 45.3998 128.789C44.4421 128.35 43.4711 128.004 42.4913 127.753C41.4644 127.43 40.4102 127.484 39.3958 127.91C37.1528 128.835 34.5994 128.503 32.1657 128.385C30.4983 128.307 30.3338 128.301 30.0983 129.428C30.0705 129.613 30.048 129.8 30.031 129.988C29.9899 130.262 30.1619 130.601 29.7207 130.751C29.2272 130.924 28.7149 130.816 28.259 130.445C27.3804 129.578 26.0608 129.428 24.7112 129.22C22.4158 128.861 20.8381 127.714 19.182 126.691C18.7309 126.345 18.2613 126.076 17.7801 125.89C15.6417 125.238 14.0416 124.007 11.9855 123.283C11.0995 122.951 10.3779 122.423 9.31622 122.293C8.75546 122.221 8.24703 122.032 8.13861 121.602C8.0302 121.172 8.43769 120.911 8.96855 120.735C9.49941 120.559 10.2134 120.455 9.69754 119.849C9.32373 119.394 8.90005 119.078 8.45299 118.921C8.00594 118.764 7.54512 118.769 7.09932 118.937C6.08994 119.341 5.15907 119.817 4.19455 120.24C3.17021 120.488 2.88982 121.237 2.14587 121.68C1.69725 121.889 1.21873 122.078 0.803766 122.332C0.328982 122.605 0.0186923 122.886 0.934614 123.114C1.39444 123.225 1.23369 123.531 0.886012 123.635C0.587454 123.726 0.291738 123.844 0 123.987V21.603C0.601891 21.603 1.20378 21.603 1.80567 21.6682L2.17951 21.4728C3.99053 20.3161 5.85722 19.4438 7.75729 18.8662C8.0788 18.788 8.3704 18.6316 8.69938 18.586C10.4201 18.3575 12.1277 17.8912 13.8061 17.1915C14.1293 17.1004 14.455 17.0395 14.7818 17.009C15.3724 16.8722 15.9708 16.8722 16.5613 17.009C18.9502 17.4978 18.954 17.4978 19.754 15.8817C20.326 14.5003 21.6569 13.6271 23.6121 13.184C25.0476 12.8582 26.4271 12.4607 27.773 11.9785C29.6002 11.4244 31.4481 11.1021 33.3022 11.0141C34.977 10.8707 35.9191 10.3624 36.3901 9.27421C36.504 9.03905 36.6291 8.82106 36.764 8.62258C37.6201 7.22809 38.1621 7.00659 40.3828 7.12388C41.4744 7.18904 42.566 7.24118 43.6614 7.29331C44.4091 7.29331 45.1568 7.29331 45.3213 8.02965C45.4147 8.47276 46.1138 8.47921 46.6559 8.53134C47.7324 8.73152 48.8147 8.82075 49.8972 8.79853C50.7234 8.68775 51.6019 8.63563 52.4206 8.47924C53.3207 8.40918 54.1978 7.96214 54.9777 7.17598C56.0993 5.78801 58.2302 5.78803 59.5536 7.11084C60.2078 7.76246 60.7648 8.48573 61.5013 9.10478C62.7911 10.18 63.7631 10.154 65.1912 9.15696C66.051 8.55094 67.0604 8.07524 66.7838 7.02612C66.6454 6.53088 67.2511 6.37451 67.8716 6.55697C70.4138 7.3715 73.2438 7.69077 75.6102 8.80505C77.5019 9.69127 79.6964 10.1083 81.8609 10.5515C82.2584 10.6717 82.6633 10.698 83.0647 10.6296C83.3152 10.5319 83.5694 10.4472 83.8124 10.3755C85.6517 9.89981 87.7415 10.1604 89.5397 9.52183C91.1473 8.95491 92.5641 9.09827 93.4875 10.1735C94.9829 11.9654 97.1998 12.6627 99.9887 12.9103C101.267 13.0276 102.49 13.3795 103.794 12.9103C104.292 12.7409 107.339 13.5033 107.664 13.8813C108.34 14.6763 109.443 14.8457 110.602 14.9955C111.75 15.2036 112.903 15.3036 114.057 15.2952C116.061 15.1938 118.065 15.4581 120.038 16.0838C120.79 16.4009 121.576 16.3694 122.318 15.9925C122.597 15.7626 122.913 15.7074 123.212 15.8362C124.057 16.5986 124.838 16.1685 125.653 15.8362C125.718 15.806 125.785 15.7928 125.851 15.797C128.068 15.9273 130.296 16.0186 132.498 16.2336C133.085 16.2923 133.545 16.6246 134.091 16.1554C134.33 15.9726 134.59 15.8926 134.85 15.9221C135.111 15.9515 135.363 16.0897 135.586 16.3249C136.226 16.8722 136.771 17.4782 137.418 18.0191C138.54 18.9509 139.93 19.2442 141.646 18.9183C143.691 18.5143 145.789 18.2667 147.882 18.0452C149.732 17.9108 151.56 17.298 153.307 16.2271C154.652 15.1755 156.13 14.7489 157.598 14.989C158.582 15.1886 159.575 14.783 160.406 13.8421C161.662 12.1479 164.724 11.8416 166.664 13.1905C166.855 13.3208 167.004 13.4838 167.176 13.6336C168.148 14.4677 168.148 14.4677 168.937 13.4903C169.726 12.5129 170.503 12.2392 172.16 12.5911C175.236 13.2427 178.283 13.9464 181.349 14.6241C182.646 14.8978 183.928 15.2757 185.334 14.8457C185.803 14.7616 186.276 14.7945 186.74 14.9434C187.756 15.165 188.291 14.8066 188.609 14.2006C188.834 13.6787 189.084 13.1905 189.356 12.7409C190.418 11.2357 192.194 10.9228 194.179 11.9003C195.245 12.4151 196.228 12.6497 197.263 11.9003C197.613 11.6695 197.998 11.6695 198.347 11.9003C198.691 12.1153 198.86 12.5519 199.398 12.4933C200.254 12.3695 201.29 12.2717 201.862 11.8807C204.221 10.2907 206.923 10.5318 209.712 10.9749C210.045 11.0206 210.374 11.0858 210.711 11.1249C210.85 11.1269 210.99 11.1138 211.129 11.0858C211.376 10.6752 210.83 10.5124 210.527 10.3169C209.985 9.95848 209.361 9.66522 208.808 9.31334C208.254 8.96146 207.48 8.70729 207.847 8.04914C208.213 7.391 209.488 7.04568 210.438 7.20207C211.298 7.34073 212.147 7.64675 212.969 8.11437C213.66 8.49883 214.329 8.90279 215.025 9.28073C216.039 9.89522 217.127 10.0434 218.184 9.71083C219.498 9.3418 220.843 9.5341 222.105 10.2712C224.506 11.5823 227.02 12.1513 229.534 11.9524C230.965 11.8937 232.218 11.594 233.123 10.786C233.362 10.5337 233.633 10.3833 233.912 10.3471C234.191 10.3109 234.472 10.3898 234.73 10.5775C236.376 11.1259 238.057 11.2903 239.728 11.0662C240.929 10.8927 242.136 11.1637 243.272 11.8612C244.644 12.7149 245.788 13.7314 247.385 14.4286C248.38 14.9645 249.433 15.096 250.462 14.8131C252.088 14.2592 253.923 13.9594 255.258 13.0406C256.302 12.4373 257.38 12.031 258.473 11.8286C259.395 11.6581 260.286 11.1543 261.09 10.3494C262.585 8.68124 264.391 8.35541 267.071 9.18949C269.397 9.93449 271.747 10.4307 274.107 10.6752C274.987 10.8255 275.874 10.8255 276.754 10.6752C277.587 10.4607 278.428 10.3561 279.27 10.3625C280.392 10.3625 281.513 10.4407 282.635 10.4667C283.562 10.4667 284.504 10.6166 285.087 11.1184L285.192 11.2226C285.738 11.7634 286.216 11.6006 286.911 11.4246C290.515 10.4732 293.988 10.3755 297.073 12.3108C297.775 12.7539 298.437 13.184 299.106 12.2457C299.405 11.8221 300.108 11.9068 300.561 12.1283C301.873 12.78 303.484 12.9038 304.856 13.4316C305.356 13.6676 305.88 13.7055 306.389 13.5424C306.883 13.3223 307.404 13.3654 307.884 13.6662C308.124 13.8589 308.386 13.9549 308.65 13.947C308.914 13.9391 309.174 13.8275 309.409 13.6206C310.176 12.969 311.062 13.1123 311.955 13.5098C312.937 13.8861 313.884 14.5026 314.767 15.3409C315.078 15.7119 315.43 15.967 315.801 16.0904C316.171 16.2137 316.552 16.2026 316.92 16.0577C317.731 15.8101 317.963 15.178 317.63 14.3439C317.63 14.3048 317.574 14.2592 317.563 14.2201C317.436 13.777 316.86 13.2753 317.634 12.9169C318.464 12.5454 319.129 12.9168 319.817 13.2883C320.961 13.8812 321.997 14.5394 322.995 15.2431C323.743 15.7905 324.244 15.6862 324.737 15.0541C325.963 13.4902 326.061 13.4577 328.543 13.9595C328.801 14.1784 329.084 14.2921 329.371 14.2921C329.658 14.2921 329.941 14.1784 330.199 13.9595C330.801 13.588 331.416 13.2918 332.042 13.0733C333.164 12.8061 333.911 12.4216 334.042 11.6592C334.057 11.528 334.057 11.3929 334.042 11.2617C333.99 10.6557 334.704 10.6622 335.373 10.8251C336.042 10.988 336.308 11.3725 336.364 11.8156C336.387 11.9807 336.432 12.1344 336.495 12.2652C336.875 12.9043 337.342 13.366 337.852 13.6076C338.377 13.987 338.962 14.0422 339.508 13.7639C340.349 13.2817 341.295 13.399 342.252 13.4186C343.414 13.4577 344.581 13.4642 345.743 13.4642C346.656 13.5432 347.569 13.3694 348.45 12.9494C348.876 12.6912 349.327 12.5848 349.777 12.6366C350.652 12.7474 350.947 12.3956 351.273 11.9394C351.972 10.988 352.42 10.9228 353.65 11.4767C354.086 11.6695 354.516 11.9045 354.936 12.1805C356.482 13.106 358.103 13.5922 359.737 13.6206C361.232 13.6988 362.727 13.8552 364.178 14.1485C365.311 14.4541 366.47 14.243 367.542 13.5359C369.382 12.2326 371.95 11.6722 374.189 10.7795C374.707 10.6096 375.238 10.6096 375.756 10.7795C377.412 11.1965 378.272 10.9555 379.068 9.88678C379.408 9.42412 379.659 8.94841 379.965 8.47924C380.056 8.34024 380.151 8.20974 380.249 8.08828C380.997 7.11735 381.349 7.05871 382.836 7.52789C384.829 8.17952 386.724 8.92232 388.818 9.43059C388.88 9.44349 388.941 9.46313 389.001 9.4893C390.979 11.0662 393.816 10.8577 396.392 11.1184C396.791 11.1618 397.187 11.2423 397.581 11.3595C398.284 11.5889 398.967 11.9721 399.615 12.4998C401.357 13.8878 403.544 14.6632 406.187 14.8587C406.588 14.9367 406.993 14.9367 407.394 14.8587C408.718 14.2657 409.484 14.963 410.591 15.2692C414.845 16.4422 419.189 17.6477 423.716 15.6537C425.228 15.0801 426.765 14.7313 428.311 14.6111C430.838 14.3434 433.35 13.7422 435.825 12.8126C436.418 12.5798 436.983 12.165 437.493 11.5875C438.24 10.7209 439.362 10.3951 440.794 10.4602C441.276 10.4602 441.754 10.5123 442.233 10.5188C445.018 10.5579 447.818 10.8056 450.551 10.1995C450.999 10.0268 451.464 10.0268 451.912 10.1995C453.916 11.3399 456.177 11.5028 458.615 11.0597C459.363 10.9359 460.11 10.9229 460.836 10.7795C462.054 10.4512 463.3 10.6026 464.481 11.2226C465.426 11.659 466.4 11.8781 467.378 11.8742C468.384 11.9654 468.641 11.7765 468.589 11.1249C468.436 9.17 468.436 9.17001 471.27 9.50234C472.537 9.6457 473.311 9.15042 473.262 8.23814C473.18 6.60907 473.206 6.66122 475.374 6.06172C476.567 5.73591 477.617 5.48174 478.87 5.95092C480.477 6.55042 481.797 7.33887 482.649 8.45967C482.712 8.51771 482.765 8.60159 482.804 8.70379C482.843 8.806 482.867 8.92342 482.874 9.04576C482.881 9.16809 482.871 9.29158 482.844 9.4053C482.817 9.51901 482.775 9.61943 482.72 9.69778C482.519 10.1018 482.246 10.4798 482.018 10.8707C481.7 11.4246 480.956 11.9068 481.319 12.578C481.835 13.5489 482.066 14.6176 483.457 15.2431C484.848 15.8687 486.197 16.4943 487.569 17.0938C487.937 17.2498 488.313 17.3502 488.691 17.3936C489.246 17.537 489.812 17.4013 490.324 17.0025C490.668 16.6246 490.429 16.2662 490.126 15.9404C489.753 15.556 489.33 15.1845 488.9 14.8131C488.358 14.3504 488.526 13.9855 489.065 13.5685C489.812 12.9885 490.668 13.158 491.528 13.3078C492.388 13.4577 492.713 13.9594 492.571 14.5068C492.362 15.367 493.259 16.1164 493.001 16.9895C492.912 17.2958 493.465 17.4261 493.902 17.3936C494.856 17.3219 495.805 17.2306 496.755 17.1394C497.405 17.0677 497.633 16.7159 497.76 16.3379C498.508 14.0963 499.469 13.6076 503.282 13.8943C505.215 14.0377 506.579 13.5164 507.693 12.4998C508.49 11.77 509.249 11.0988 510 10.4341Z" fill="white"/>
</svg>
