<svg width="146" height="146" viewBox="0 0 146 146" fill="none" xmlns="http://www.w3.org/2000/svg">
<rect width="146" height="146" rx="5" fill="white"/>
<circle cx="72" cy="73" r="48" fill="#005DF2"/>
<circle cx="72" cy="73" r="44" fill="#77ACFF"/>
<circle cx="72" cy="73" r="26" fill="white"/>
<circle cx="72" cy="73" r="22" fill="#B3D0FF"/>
<rect x="21" y="61" width="103" height="23" rx="5" fill="#005DF2"/>
<path d="M48.127 52.4231C47.5661 52.9425 46.9753 53.2595 46.3544 53.3741C45.7336 53.4887 45.116 53.421 44.5016 53.171C43.8899 52.9186 43.3158 52.5028 42.7795 51.9237C42.2431 51.3446 41.8725 50.7404 41.6677 50.111C41.4655 49.4793 41.4453 48.8584 41.607 48.2481C41.7688 47.6379 42.1301 47.0731 42.691 46.5537C43.3431 45.9497 44.0326 45.6188 44.7595 45.5611C45.4889 45.5011 46.1929 45.6777 46.8714 46.0912L46.3372 46.935C45.8334 46.6213 45.3218 46.4797 44.8023 46.5101C44.2829 46.5405 43.7844 46.7767 43.3071 47.2189C42.8871 47.6078 42.6257 48.0268 42.5229 48.4757C42.4202 48.9247 42.4566 49.3852 42.6322 49.8574C42.8055 50.327 43.0997 50.7887 43.5151 51.2424C43.928 51.6935 44.3632 52.0247 44.8205 52.2359C45.2755 52.4446 45.7332 52.515 46.1937 52.4471C46.6518 52.3766 47.0909 52.1469 47.5109 51.7579C47.9883 51.3158 48.262 50.8369 48.3321 50.3213C48.3998 49.8031 48.2977 49.2821 48.0259 48.7584L48.9081 48.2903C49.266 48.9959 49.3883 49.7114 49.2749 50.4367C49.1618 51.157 48.7791 51.8191 48.127 52.4231Z" fill="white"/>
<path d="M52.2507 48.9835L48.3831 42.3484L52.5761 39.9043L53.03 40.683L49.6572 42.649L50.8685 44.7271L53.6884 43.0834L54.1423 43.8621L51.3224 45.5058L52.6169 47.7267L55.9898 45.7607L56.4437 46.5394L52.2507 48.9835Z" fill="white"/>
<path d="M58.8644 45.5246L56.483 38.2232L59.3681 37.2822C59.4391 37.259 59.5247 37.2349 59.6249 37.2097C59.7241 37.1811 59.822 37.1603 59.9188 37.1475C60.3341 37.0793 60.7095 37.1065 61.0449 37.229C61.3837 37.3503 61.6731 37.5495 61.913 37.8266C62.1519 38.1002 62.3347 38.4314 62.4615 38.8201C62.6456 39.3847 62.6584 39.9228 62.4999 40.4345C62.3403 40.9428 61.9937 41.3419 61.46 41.6319L61.1334 41.8002L58.8872 42.5328L59.767 45.2303L58.8644 45.5246ZM63.2098 44.1074L60.8007 41.6058L61.6038 41.0409L64.2442 43.77L63.2098 44.1074ZM58.6077 41.6759L60.5598 41.0392C60.624 41.0182 60.6956 40.9912 60.7745 40.9579C60.8568 40.9236 60.9324 40.8859 61.0013 40.8447C61.2169 40.7146 61.3742 40.5548 61.4732 40.3654C61.5746 40.1715 61.6276 39.9672 61.6324 39.7525C61.636 39.5344 61.6048 39.3239 61.5386 39.1211C61.4725 38.9183 61.3742 38.7316 61.2437 38.561C61.1122 38.387 60.9483 38.2515 60.7522 38.1547C60.5594 38.0567 60.3382 38.0205 60.0884 38.0458C60.0074 38.0498 59.9241 38.0639 59.8385 38.0881C59.7552 38.1078 59.6814 38.1281 59.6172 38.149L57.665 38.7857L58.6077 41.6759Z" fill="white"/>
<path d="M68.5606 43.2194L67.865 36.4766L65.2601 36.7453L65.1676 35.8487L71.3216 35.2138L71.4141 36.1104L68.8093 36.3791L69.505 43.122L68.5606 43.2194Z" fill="white"/>
<path d="M74.3151 43.0806L74.7885 35.4152L75.7361 35.4737L75.2626 43.1391L74.3151 43.0806Z" fill="white"/>
<path d="M78.5574 43.5234L80.2283 36.0274L84.601 37.0021L84.3945 37.9287L80.9484 37.1605L80.4227 39.5187L83.2441 40.1476L83.0376 41.0742L80.2162 40.4453L79.484 43.73L78.5574 43.5234Z" fill="white"/>
<path d="M85.4924 45.493L88.3194 38.3523L89.2021 38.7017L86.3751 45.8425L85.4924 45.493Z" fill="white"/>
<path d="M89.3732 47.2074L93.3314 40.6259L97.4905 43.1273L97.0259 43.8997L93.6804 41.8876L92.4407 43.9489L95.2378 45.6311L94.7733 46.4035L91.9762 44.7213L90.6513 46.9243L93.9968 48.9363L93.5323 49.7087L89.3732 47.2074Z" fill="white"/>
<path d="M95.588 51.3431L100.845 45.7444L102.571 47.3653C102.628 47.4188 102.727 47.5138 102.867 47.6503C103.007 47.7867 103.134 47.9249 103.246 48.0647C103.625 48.5282 103.839 49.0258 103.885 49.5576C103.937 50.0892 103.851 50.6227 103.626 51.158C103.402 51.6933 103.066 52.1994 102.618 52.6764C102.17 53.1533 101.686 53.5207 101.166 53.7785C100.646 54.0364 100.118 54.1574 99.5813 54.1416C99.05 54.1256 98.5412 53.9429 98.0548 53.5935C97.9106 53.4874 97.7635 53.3687 97.6135 53.2376C97.4685 53.1064 97.3688 53.0152 97.3143 52.9641L95.588 51.3431ZM96.9202 51.3503L97.9349 52.3031C98.0334 52.3956 98.146 52.4964 98.2727 52.6056C98.4019 52.7122 98.5191 52.8004 98.6244 52.87C98.9838 53.1002 99.3518 53.2043 99.7284 53.1824C100.105 53.1605 100.477 53.0418 100.845 52.8265C101.213 52.6112 101.559 52.3311 101.883 51.9864C102.214 51.6339 102.474 51.266 102.663 50.8827C102.855 50.5019 102.949 50.1241 102.944 49.7495C102.94 49.3748 102.812 49.0179 102.56 48.6787C102.486 48.5754 102.39 48.4627 102.27 48.3407C102.15 48.2187 102.044 48.1139 101.951 48.0263L100.936 47.0734L96.9202 51.3503Z" fill="white"/>
<path d="M43.0261 101.122L47.6575 95.2125L49.9924 97.0426C50.0499 97.0876 50.1161 97.1439 50.1911 97.2116C50.2683 97.2765 50.3385 97.3448 50.4016 97.4163C50.6831 97.7164 50.8655 98.036 50.9486 98.375C51.0345 98.7161 51.0304 99.0595 50.9361 99.4052C50.844 99.7481 50.6746 100.077 50.428 100.391C50.1836 100.703 49.9035 100.945 49.5876 101.117C49.2766 101.289 48.9442 101.375 48.5902 101.376C48.2412 101.376 47.8887 101.276 47.5328 101.077C47.4503 101.03 47.3673 100.978 47.2837 100.921C47.2 100.864 47.1295 100.814 47.072 100.769L45.4676 99.511L43.7565 101.694L43.0261 101.122ZM46.0111 98.8175L47.591 100.056C47.643 100.097 47.7039 100.14 47.7739 100.186C47.8465 100.234 47.9183 100.275 47.9892 100.308C48.2123 100.412 48.4277 100.453 48.6354 100.431C48.8479 100.407 49.0427 100.339 49.2196 100.226C49.3987 100.11 49.5526 99.9703 49.6812 99.8061C49.8099 99.642 49.9079 99.4605 49.9754 99.2617C50.0451 99.0601 50.0658 98.8534 50.0377 98.6414C50.0122 98.4316 49.9212 98.2321 49.7646 98.0432C49.7173 97.9796 49.6605 97.9196 49.5943 97.8633C49.5329 97.8063 49.4762 97.7575 49.4242 97.7168L47.8444 96.4785L46.0111 98.8175Z" fill="white"/>
<path d="M49.2152 105.501L52.7395 98.8715L55.359 100.264C55.4234 100.298 55.4985 100.342 55.5843 100.396C55.6716 100.446 55.7527 100.501 55.8274 100.56C56.1571 100.806 56.3926 101.089 56.5339 101.408C56.6783 101.729 56.7343 102.068 56.7021 102.425C56.6715 102.779 56.5623 103.132 56.3747 103.485C56.1022 103.997 55.7321 104.371 55.2644 104.607C54.7984 104.839 54.2822 104.866 53.7161 104.687L53.3761 104.571L51.3367 103.487L50.0347 105.936L49.2152 105.501ZM53.1605 107.598L53.2873 104.205L54.2297 104.388L54.0996 108.097L53.1605 107.598ZM51.7503 102.709L53.5227 103.651C53.581 103.682 53.6486 103.714 53.7256 103.747C53.8055 103.782 53.8834 103.81 53.9591 103.83C54.1969 103.894 54.4161 103.896 54.6166 103.837C54.8218 103.777 55.0016 103.676 55.156 103.534C55.312 103.388 55.439 103.224 55.5369 103.039C55.6348 102.855 55.6995 102.659 55.7311 102.452C55.7644 102.241 55.7486 102.034 55.6837 101.83C55.6219 101.628 55.4973 101.448 55.31 101.289C55.2523 101.235 55.1859 101.186 55.1108 101.142C55.0404 101.097 54.9761 101.058 54.9178 101.027L53.1454 100.085L51.7503 102.709Z" fill="white"/>
<path d="M59.4353 110.005C58.7216 109.783 58.1648 109.438 57.7648 108.968C57.3648 108.498 57.1208 107.941 57.0328 107.299C56.9482 106.658 57.0202 105.968 57.2491 105.232C57.478 104.495 57.809 103.886 58.2421 103.405C58.6786 102.926 59.1948 102.606 59.7906 102.445C60.3865 102.284 61.0412 102.315 61.7549 102.536C62.4719 102.759 63.0304 103.105 63.4303 103.575C63.8303 104.045 64.0726 104.601 64.1573 105.243C64.242 105.884 64.1699 106.573 63.941 107.31C63.7122 108.047 63.3812 108.656 62.948 109.136C62.5149 109.617 62.0004 109.937 61.4045 110.098C60.8087 110.259 60.1523 110.228 59.4353 110.005ZM59.6982 109.159C60.2316 109.328 60.7135 109.347 61.1439 109.215C61.5787 109.08 61.9516 108.823 62.2626 108.443C62.5769 108.064 62.8227 107.589 63 107.018C63.1783 106.443 63.2449 105.913 63.1997 105.426C63.1578 104.939 62.9952 104.519 62.712 104.166C62.4321 103.813 62.0254 103.552 61.492 103.383C60.9586 103.214 60.4767 103.195 60.0463 103.327C59.6191 103.46 59.2484 103.716 58.9341 104.095C58.6198 104.474 58.3718 104.951 58.1902 105.524C58.0095 106.094 57.9418 106.622 57.987 107.11C58.0323 107.597 58.1943 108.018 58.4732 108.374C58.7564 108.728 59.1648 108.989 59.6982 109.159Z" fill="white"/>
<path d="M67.8395 111.544C67.328 111.489 66.8713 111.349 66.4692 111.123C66.0671 110.898 65.7321 110.601 65.4644 110.233C65.197 109.861 65.0062 109.428 64.892 108.933C64.7816 108.435 64.759 107.886 64.8242 107.285C64.9103 106.49 65.1265 105.817 65.4728 105.268C65.8191 104.718 66.2667 104.314 66.8157 104.055C67.365 103.793 67.987 103.699 68.6815 103.775C69.5178 103.865 70.1705 104.133 70.6396 104.579C71.1091 105.022 71.404 105.59 71.5245 106.285L70.5707 106.376C70.4643 105.906 70.2477 105.518 69.921 105.209C69.5943 104.901 69.1649 104.718 68.6327 104.661C68.0767 104.597 67.6002 104.671 67.2031 104.883C66.8098 105.093 66.4954 105.413 66.2597 105.846C66.0241 106.278 65.8721 106.793 65.8039 107.391C65.736 107.985 65.771 108.516 65.9089 108.986C66.0468 109.455 66.2868 109.838 66.6289 110.134C66.9747 110.426 67.4256 110.605 67.9816 110.668C68.4616 110.724 68.8758 110.676 69.2243 110.525C69.5728 110.374 69.856 110.132 70.0739 109.799C70.2918 109.466 70.4465 109.055 70.5381 108.565L68.952 108.393L69.0345 107.631L71.5951 107.908C71.598 107.978 71.5942 108.062 71.5837 108.159C71.5771 108.252 71.5719 108.316 71.5681 108.351C71.4943 109.032 71.3004 109.628 70.9862 110.139C70.6759 110.647 70.2553 111.028 69.7244 111.282C69.1969 111.536 68.5686 111.623 67.8395 111.544Z" fill="white"/>
<path d="M73.3644 111.54L72.7678 104.056L75.725 103.82C75.7978 103.814 75.8847 103.811 75.9857 103.81C76.0865 103.805 76.1843 103.808 76.2793 103.818C76.6896 103.848 77.0402 103.96 77.3311 104.153C77.6254 104.345 77.8549 104.601 78.0198 104.919C78.1843 105.233 78.2825 105.59 78.3143 105.988C78.3604 106.567 78.2497 107.081 77.9822 107.532C77.7145 107.978 77.2939 108.279 76.7203 108.432L76.3715 108.518L74.0691 108.701L74.2895 111.466L73.3644 111.54ZM77.8184 111.185L76.0996 108.257L76.992 107.903L78.8787 111.1L77.8184 111.185ZM73.9991 107.823L76 107.664C76.0658 107.658 76.1401 107.649 76.2227 107.635C76.3087 107.621 76.3892 107.603 76.464 107.579C76.6987 107.505 76.8847 107.389 77.0221 107.232C77.1627 107.07 77.2597 106.888 77.3133 106.685C77.3666 106.479 77.3849 106.272 77.3684 106.064C77.3518 105.856 77.301 105.656 77.2159 105.464C77.1306 105.269 77.0058 105.102 76.8415 104.966C76.6806 104.829 76.4786 104.743 76.2354 104.711C76.1575 104.696 76.0751 104.69 75.9882 104.694C75.9045 104.693 75.8297 104.696 75.7639 104.701L73.7629 104.861L73.9991 107.823Z" fill="white"/>
<path d="M80.8554 110.629L81.343 102.727L82.5921 102.393L86.9598 108.996L86.028 109.246L81.9566 103.124L82.2387 103.049L81.7872 110.38L80.8554 110.629ZM81.5699 108.619L81.3449 107.778L85.1123 106.77L85.3373 107.612L81.5699 108.619Z" fill="white"/>
<path d="M89.109 108.025L85.7744 101.299L86.5311 100.924L91.7284 105.022L91.5994 98.4111L92.3655 98.0314L95.6978 104.753L94.9084 105.145L92.4815 100.249L92.6264 106.282L92.1827 106.502L87.4693 102.734L89.8984 107.634L89.109 108.025Z" fill="white"/>
<path d="M99.5828 101.837C99.1624 102.163 98.7278 102.385 98.2792 102.504C97.8332 102.621 97.3982 102.632 96.974 102.539C96.5505 102.44 96.1652 102.235 95.8183 101.924L96.4841 101.217C96.8698 101.516 97.2957 101.654 97.7619 101.632C98.2286 101.604 98.6681 101.431 99.0803 101.112C99.3468 100.905 99.5553 100.678 99.7058 100.429C99.8569 100.176 99.935 99.9218 99.94 99.6673C99.9451 99.4128 99.8646 99.1783 99.6986 98.964C99.5964 98.8321 99.4858 98.7375 99.3667 98.6803C99.2482 98.6182 99.1236 98.585 98.9929 98.5808C98.8627 98.5717 98.7301 98.5821 98.595 98.612C98.4599 98.6419 98.327 98.6833 98.1964 98.7361L96.3357 99.4586C96.1326 99.5369 95.9253 99.5985 95.7139 99.6435C95.5005 99.6858 95.2896 99.6974 95.0815 99.6784C94.8712 99.6566 94.6686 99.5938 94.4737 99.4897C94.2766 99.3829 94.093 99.2196 93.9227 98.9998C93.6502 98.6481 93.5089 98.2783 93.4987 97.8906C93.4891 97.4979 93.5898 97.1143 93.8009 96.7397C94.012 96.3652 94.315 96.0271 94.7101 95.7254C95.1107 95.4195 95.5218 95.2153 95.9437 95.1128C96.3661 95.0054 96.7804 95.001 97.1866 95.0997C97.5955 95.1962 97.9751 95.3968 98.3254 95.7014L97.6517 96.4409C97.4232 96.231 97.1704 96.0948 96.8934 96.0324C96.6171 95.9651 96.3369 95.9667 96.053 96.0372C95.7669 96.1049 95.4964 96.2353 95.2415 96.4284C94.9975 96.613 94.8089 96.8207 94.6755 97.0515C94.5421 97.2823 94.4731 97.5138 94.4684 97.7461C94.4615 97.9757 94.5294 98.1825 94.672 98.3666C94.8125 98.5479 94.9786 98.6545 95.1703 98.6863C95.3598 98.7153 95.5557 98.7043 95.7579 98.6531C95.9608 98.5971 96.151 98.5333 96.3285 98.4617L97.7101 97.9125C97.867 97.8482 98.0536 97.7827 98.2702 97.716C98.4895 97.6473 98.7236 97.6089 98.9724 97.6008C99.219 97.59 99.468 97.639 99.7193 97.7477C99.9684 97.8536 100.204 98.0495 100.425 98.3353C100.646 98.6211 100.786 98.9199 100.843 99.2319C100.902 99.5418 100.889 99.851 100.803 100.16C100.714 100.466 100.565 100.761 100.356 101.047C100.148 101.335 99.8905 101.598 99.5828 101.837Z" fill="white"/>
<path d="M54.51 80V69.407L52.08 70.892V68.498L54.51 67.04H56.724V80H54.51ZM64.8146 80.27C63.8966 80.27 63.0866 80.075 62.3846 79.685C61.6826 79.289 61.1336 78.74 60.7376 78.038C60.3476 77.336 60.1526 76.526 60.1526 75.608V71.432C60.1526 70.514 60.3476 69.704 60.7376 69.002C61.1336 68.3 61.6826 67.754 62.3846 67.364C63.0866 66.968 63.8966 66.77 64.8146 66.77C65.7326 66.77 66.5396 66.968 67.2356 67.364C67.9376 67.754 68.4866 68.3 68.8826 69.002C69.2786 69.704 69.4766 70.514 69.4766 71.432V75.608C69.4766 76.526 69.2786 77.336 68.8826 78.038C68.4866 78.74 67.9376 79.289 67.2356 79.685C66.5396 80.075 65.7326 80.27 64.8146 80.27ZM64.8146 78.209C65.2706 78.209 65.6846 78.101 66.0566 77.885C66.4286 77.663 66.7226 77.369 66.9386 77.003C67.1546 76.631 67.2626 76.217 67.2626 75.761V71.27C67.2626 70.808 67.1546 70.394 66.9386 70.028C66.7226 69.656 66.4286 69.362 66.0566 69.146C65.6846 68.924 65.2706 68.813 64.8146 68.813C64.3586 68.813 63.9446 68.924 63.5726 69.146C63.2006 69.362 62.9066 69.656 62.6906 70.028C62.4746 70.394 62.3666 70.808 62.3666 71.27V75.761C62.3666 76.217 62.4746 76.631 62.6906 77.003C62.9066 77.369 63.2006 77.663 63.5726 77.885C63.9446 78.101 64.3586 78.209 64.8146 78.209ZM76.6622 80.27C75.7442 80.27 74.9342 80.075 74.2322 79.685C73.5302 79.289 72.9812 78.74 72.5852 78.038C72.1952 77.336 72.0002 76.526 72.0002 75.608V71.432C72.0002 70.514 72.1952 69.704 72.5852 69.002C72.9812 68.3 73.5302 67.754 74.2322 67.364C74.9342 66.968 75.7442 66.77 76.6622 66.77C77.5802 66.77 78.3872 66.968 79.0832 67.364C79.7852 67.754 80.3342 68.3 80.7302 69.002C81.1262 69.704 81.3242 70.514 81.3242 71.432V75.608C81.3242 76.526 81.1262 77.336 80.7302 78.038C80.3342 78.74 79.7852 79.289 79.0832 79.685C78.3872 80.075 77.5802 80.27 76.6622 80.27ZM76.6622 78.209C77.1182 78.209 77.5322 78.101 77.9042 77.885C78.2762 77.663 78.5702 77.369 78.7862 77.003C79.0022 76.631 79.1102 76.217 79.1102 75.761V71.27C79.1102 70.808 79.0022 70.394 78.7862 70.028C78.5702 69.656 78.2762 69.362 77.9042 69.146C77.5322 68.924 77.1182 68.813 76.6622 68.813C76.2062 68.813 75.7922 68.924 75.4202 69.146C75.0482 69.362 74.7542 69.656 74.5382 70.028C74.3222 70.394 74.2142 70.808 74.2142 71.27V75.761C74.2142 76.217 74.3222 76.631 74.5382 77.003C74.7542 77.369 75.0482 77.663 75.4202 77.885C75.7922 78.101 76.2062 78.209 76.6622 78.209ZM85.6479 80L84.2079 78.56L95.7369 67.04L97.1769 68.489L85.6479 80ZM94.4769 80.27C93.8829 80.27 93.3399 80.126 92.8479 79.838C92.3619 79.544 91.9719 79.154 91.6779 78.668C91.3839 78.176 91.2369 77.63 91.2369 77.03C91.2369 76.442 91.3869 75.902 91.6869 75.41C91.9869 74.918 92.3829 74.525 92.8749 74.231C93.3669 73.937 93.9009 73.79 94.4769 73.79C95.0709 73.79 95.6139 73.937 96.1059 74.231C96.5979 74.519 96.9879 74.909 97.2759 75.401C97.5699 75.887 97.7169 76.43 97.7169 77.03C97.7169 77.63 97.5699 78.176 97.2759 78.668C96.9879 79.154 96.5979 79.544 96.1059 79.838C95.6139 80.126 95.0709 80.27 94.4769 80.27ZM94.4769 78.416C94.7229 78.416 94.9509 78.353 95.1609 78.227C95.3769 78.101 95.5479 77.933 95.6739 77.723C95.7999 77.513 95.8629 77.282 95.8629 77.03C95.8629 76.778 95.7999 76.547 95.6739 76.337C95.5479 76.127 95.3769 75.959 95.1609 75.833C94.9509 75.707 94.7229 75.644 94.4769 75.644C94.2249 75.644 93.9939 75.707 93.7839 75.833C93.5739 75.959 93.4029 76.127 93.2709 76.337C93.1449 76.547 93.0819 76.778 93.0819 77.03C93.0819 77.282 93.1449 77.513 93.2709 77.723C93.4029 77.933 93.5739 78.101 93.7839 78.227C93.9939 78.353 94.2249 78.416 94.4769 78.416ZM86.9079 73.25C86.3139 73.25 85.7709 73.106 85.2789 72.818C84.7869 72.524 84.3939 72.134 84.0999 71.648C83.8119 71.156 83.6679 70.61 83.6679 70.01C83.6679 69.422 83.8179 68.882 84.1179 68.39C84.4179 67.898 84.8139 67.505 85.3059 67.211C85.7979 66.917 86.3319 66.77 86.9079 66.77C87.5019 66.77 88.0419 66.917 88.5279 67.211C89.0199 67.499 89.4129 67.889 89.7069 68.381C90.0009 68.867 90.1479 69.41 90.1479 70.01C90.1479 70.61 90.0009 71.156 89.7069 71.648C89.4129 72.134 89.0199 72.524 88.5279 72.818C88.0419 73.106 87.5019 73.25 86.9079 73.25ZM86.9079 71.396C87.1599 71.396 87.3909 71.333 87.6009 71.207C87.8109 71.081 87.9789 70.913 88.1049 70.703C88.2309 70.493 88.2939 70.262 88.2939 70.01C88.2939 69.758 88.2309 69.527 88.1049 69.317C87.9789 69.107 87.8109 68.939 87.6009 68.813C87.3909 68.687 87.1599 68.624 86.9079 68.624C86.6559 68.624 86.4249 68.687 86.2149 68.813C86.0049 68.939 85.8369 69.107 85.7109 69.317C85.5849 69.527 85.5219 69.758 85.5219 70.01C85.5219 70.262 85.5849 70.493 85.7109 70.703C85.8369 70.913 86.0049 71.081 86.2149 71.207C86.4249 71.333 86.6559 71.396 86.9079 71.396Z" fill="white"/>
</svg>
