<svg width="146" height="146" viewBox="0 0 146 146" fill="none" xmlns="http://www.w3.org/2000/svg">
<rect width="146" height="146" rx="5" fill="white"/>
<path d="M72.5 17L74.9481 22.1304L80.584 22.8734L76.4612 26.7871L77.4962 32.3766L72.5 29.665L67.5038 32.3766L68.5388 26.7871L64.416 22.8734L70.0519 22.1304L72.5 17Z" fill="#77ABFF"/>
<path d="M73.5 50L80.8297 61.4116L93.9477 64.8561L85.3597 75.3534L86.1374 88.8939L73.5 83.97L60.8626 88.8939L61.6403 75.3534L53.0523 64.8561L66.1703 61.4116L73.5 50Z" fill="#005DF2"/>
<path d="M120.5 63L122.948 68.1304L128.584 68.8734L124.461 72.7871L125.496 78.3766L120.5 75.665L115.504 78.3766L116.539 72.7871L112.416 68.8734L118.052 68.1304L120.5 63Z" fill="#77ABFF"/>
<path d="M72.5 128L74.9481 122.87L80.584 122.127L76.4612 118.213L77.4962 112.623L72.5 115.335L67.5038 112.623L68.5388 118.213L64.416 122.127L70.0519 122.87L72.5 128Z" fill="#77ABFF"/>
<path d="M124.621 92.6099L120.299 88.9174L121.04 83.2813L116.193 86.2507L111.061 83.8042L112.387 89.332L108.475 93.4561L114.142 93.903L116.855 98.8983L119.032 93.6468L124.621 92.6099Z" fill="#77ABFF"/>
<path d="M112.301 111.562L110.977 106.034L114.892 101.912L109.225 101.462L106.514 96.4653L104.335 101.716L98.7453 102.75L103.066 106.445L102.322 112.08L107.171 109.113L112.301 111.562Z" fill="#77ABFF"/>
<path d="M93.6108 123.62L94.6476 118.031L99.8991 115.855L94.9039 113.142L94.4569 107.475L90.3328 111.387L84.8051 110.061L87.2515 115.192L84.2821 120.039L89.9182 119.298L93.6108 123.62Z" fill="#77ABFF"/>
<path d="M124.621 50.2104L120.299 53.9029L121.04 59.539L116.193 56.5696L111.061 59.0161L112.387 53.4883L108.475 49.3642L114.142 48.9173L116.855 43.922L119.032 49.1735L124.621 50.2104Z" fill="#77ABFF"/>
<path d="M112.301 31.2582L110.977 36.7866L114.892 40.9088L109.225 41.3584L106.514 46.355L104.335 41.1045L98.7453 40.0704L103.066 36.3757L102.322 30.74L107.171 33.7071L112.301 31.2582Z" fill="#77ABFF"/>
<path d="M93.6108 19.2L94.6476 24.7892L99.8991 26.9655L94.9039 29.6788L94.4569 35.3458L90.3328 31.4334L84.8051 32.7596L87.2515 27.6283L84.2821 22.7809L89.9182 23.522L93.6108 19.2Z" fill="#77ABFF"/>
<path d="M26.5 63L24.0519 68.1304L18.416 68.8734L22.5388 72.7871L21.5038 78.3766L26.5 75.665L31.4962 78.3766L30.4612 72.7871L34.584 68.8734L28.9481 68.1304L26.5 63Z" fill="#77ABFF"/>
<path d="M22.3791 92.6099L26.7011 88.9174L25.9601 83.2813L30.8075 86.2507L35.9387 83.8042L34.6126 89.332L38.5249 93.4561L32.8579 93.903L30.1447 98.8983L27.9684 93.6468L22.3791 92.6099Z" fill="#77ABFF"/>
<path d="M34.6993 111.562L36.0228 106.034L32.1085 101.912L37.7753 101.462L40.4861 96.4653L42.6649 101.716L48.2547 102.75L43.9344 106.445L44.6782 112.08L39.8294 109.113L34.6993 111.562Z" fill="#77ABFF"/>
<path d="M53.3892 123.62L52.3524 118.031L47.1009 115.855L52.0961 113.142L52.5431 107.475L56.6672 111.387L62.1949 110.061L59.7485 115.192L62.7179 120.039L57.0818 119.298L53.3892 123.62Z" fill="#77ABFF"/>
<path d="M22.3791 50.2104L26.7011 53.9029L25.9601 59.539L30.8075 56.5696L35.9387 59.0161L34.6126 53.4883L38.5249 49.3642L32.8579 48.9173L30.1447 43.922L27.9684 49.1735L22.3791 50.2104Z" fill="#77ABFF"/>
<path d="M34.6993 31.2582L36.0228 36.7866L32.1085 40.9088L37.7753 41.3584L40.4861 46.355L42.6649 41.1045L48.2547 40.0704L43.9344 36.3757L44.6782 30.74L39.8294 33.7071L34.6993 31.2582Z" fill="#77ABFF"/>
<path d="M53.3892 19.2L52.3524 24.7892L47.1009 26.9655L52.0961 29.6788L52.5431 35.3458L56.6672 31.4334L62.1949 32.7596L59.7485 27.6283L62.7179 22.7809L57.0818 23.522L53.3892 19.2Z" fill="#77ABFF"/>
</svg>
