<svg width="28" height="20" viewBox="0 0 28 20" fill="none" xmlns="http://www.w3.org/2000/svg">
<path fill-rule="evenodd" clip-rule="evenodd" d="M24.6865 0.593178C25.8729 0.912696 26.8084 1.848 27.1277 3.03457C27.7211 5.20188 27.6983 9.7195 27.6983 9.7195C27.6983 9.7195 27.6983 14.2141 27.1279 16.3816C26.8084 17.568 25.8731 18.5035 24.6865 18.8228C22.519 19.3934 13.8491 19.3934 13.8491 19.3934C13.8491 19.3934 5.20188 19.3934 3.01175 18.8002C1.82518 18.4807 0.889873 17.5451 0.570356 16.3588C0 14.2141 0 9.69668 0 9.69668C0 9.69668 0 5.20188 0.570356 3.03457C0.889662 1.84821 1.848 0.889873 3.01154 0.570567C5.17906 0 13.8489 0 13.8489 0C13.8489 0 22.519 0 24.6865 0.593178ZM18.2982 9.69671L11.0885 13.8492V5.54423L18.2982 9.69671Z" fill="#454A6D"/>
</svg>
